<svg width="162" height="85" fill="none" xmlns="http://www.w3.org/2000/svg"><g clip-path="url(#clip0_774_3149)"><mask id="a" style="mask-type:luminance" maskUnits="userSpaceOnUse" x="-77" y="-126" width="319" height="319"><path d="M241.103-125.641h-317.83v317.83h317.83v-317.83z" fill="#fff"/></mask><g mask="url(#a)" fill-rule="evenodd" clip-rule="evenodd" fill="#E9E7DC"><path d="M14.22 56.597c6.664.373 6.063-3.028 6.055-8.716 0-2.242.206-4.997-.486-6.967-.89-2.541-2.5-2.459-5.565-2.313v18l-.004-.004zm-.01-27.766c5.534.026 5.333-1.439 5.318-6.694-.02-5.86 1.031-7.284-5.293-7.104l-.026 13.794v.004zM1.845 67.716a377.04 377.04 0 0017.69.03c12.396-.27 13.637-12.734 13.118-23.05-.105-2.074-.916-5.598-1.615-7.258-.957-2.272-2.676-3.573-4.877-4.402 3.965-2.74 5.546-3.6 5.707-10.185.291-12.165-1.488-17.618-14.102-17.6-5.243.008-10.603-.115-15.828.02l-.09 62.448-.003-.003zm97.582-45.223c0-1.589.045-3.633-.61-4.881-.624-1.196-2.466-2.004-3.927-.871-2.082 1.614-1.346 7.228-1.346 10.337 0 4.287-.576 25.811.669 28.282.721 1.431 2.672 1.857 4 .688 1.7-1.495 1.206-7.468 1.206-10.282 0-7.755-.011-15.514 0-23.273M91.971 5.177c-4.123 1.069-5.293 1.607-7.565 4.264-5.334 6.23-3.398 22.578-3.398 32.09 0 7.326-.754 15.208 2.811 20.698 5.659 8.712 25.643 9.815 27.796-7.284.803-6.365.224-16.486.224-23.284 0-6.799.957-15.858-2.433-21.113-2.93-4.541-9.95-7.307-17.432-5.371h-.004zm21.978 62.546l12.341.008.045-29.605 6.088 29.578 12.297.045V5.285l-12.039-.037-.116 29.051-5.684-28.917-12.846-.138-.086 62.48zM52.971 16.748l12.782-.007c-.321 1.005-1.92 4.078-2.605 5.307L55.02 38.527l5.233.01-7.73 15.982c-1.8 3.723-1.09 5.55-.975 13.2l26.884.03.019-11.443-13.72-.034 10.883-22.186-5.33-.04 8.78-19.286c.082-2.915.078-6.514-.06-9.422l-25.987-.086-.045 11.5v-.004zm-16.875 50.98l12.113.018.033-62.479-12.075-.018-.071 62.479zM85.33 82.856v-8.502h1.13v4.215l4.222-4.216h1.525l-3.565 3.45 3.722 5.057H90.88l-3.027-4.29-1.39 1.345v2.945h-1.129l-.004-.004zm-8.54 0v-8.502h1.155l4.463 6.674v-6.675h1.08v8.503h-1.155l-4.463-6.675v6.675h-1.08zm-3.098 0v-8.502h1.129v8.502h-1.13zm-7.617-4.75h2.414c.516 0 .916-.052 1.204-.16.288-.105.508-.277.658-.513.15-.232.224-.486.224-.762 0-.4-.146-.733-.434-.995-.291-.257-.75-.388-1.379-.388h-2.687v2.818zm-1.125 4.75v-8.502h3.771c.759 0 1.334.078 1.727.231.392.153.71.422.945.808.236.384.352.814.352 1.278 0 .605-.195 1.113-.587 1.528-.389.411-.99.673-1.809.789.299.142.523.284.68.422.33.303.64.68.93 1.133l1.47 2.317h-1.406l-1.125-1.768a14.515 14.515 0 00-.81-1.174c-.214-.269-.404-.46-.572-.568a1.622 1.622 0 00-.513-.224 3.432 3.432 0 00-.624-.04h-1.304v3.774h-1.129l.004-.004zm-7.475-.998h1.813c.56 0 .998-.052 1.32-.157.317-.104.57-.25.762-.44.265-.27.474-.629.62-1.08.15-.453.224-.999.224-1.642 0-.89-.146-1.577-.437-2.055-.292-.479-.647-.8-1.065-.96-.3-.117-.785-.176-1.454-.176h-1.783v6.51zm-1.129.998v-8.502h2.93c.662 0 1.167.04 1.514.123.486.112.901.317 1.248.609.449.381.785.863 1.006 1.454.224.59.333 1.267.333 2.022 0 .646-.075 1.218-.225 1.715-.15.501-.343.912-.579 1.241a3.11 3.11 0 01-.777.77c-.28.187-.617.333-1.013.426a5.771 5.771 0 01-1.368.146h-3.069v-.004zm-8.61 0v-3.603l-3.278-4.903h1.352l1.682 2.575c.314.475.606.953.867 1.431.258-.444.576-.945.942-1.498l1.648-2.508h1.312l-3.397 4.903v3.603h-1.129zM40.08 79.52v-.998h3.6v3.15a6.37 6.37 0 01-1.713.995 5.115 5.115 0 01-1.809.332c-.837 0-1.592-.18-2.276-.534a3.557 3.557 0 01-1.543-1.551c-.348-.677-.524-1.432-.524-2.265 0-.834.172-1.6.52-2.317.348-.718.845-1.249 1.491-1.596.65-.348 1.398-.524 2.247-.524.612 0 1.17.098 1.666.3.497.201.886.478 1.166.833.285.355.498.822.643 1.394l-1.016.276c-.127-.433-.288-.773-.475-1.023-.19-.247-.46-.445-.81-.595a2.955 2.955 0 00-1.17-.224c-.513 0-.958.078-1.331.235a2.495 2.495 0 00-.908.62 2.945 2.945 0 00-.535.842 4.467 4.467 0 00-.325 1.715c0 .759.13 1.394.389 1.91.261.512.642.89 1.14 1.136a3.533 3.533 0 001.588.374c.486 0 .96-.097 1.424-.284.463-.19.815-.389 1.054-.605V79.52H40.08zm-11.407-1.413h2.415c.515 0 .915-.052 1.203-.16.288-.105.508-.277.658-.513.15-.232.224-.486.224-.762 0-.4-.146-.733-.437-.995-.292-.257-.751-.388-1.38-.388H28.67v2.814l.003.004zm-1.128 4.75v-8.502h3.77c.76 0 1.335.078 1.727.231a1.9 1.9 0 01.946.808c.235.384.351.814.351 1.278 0 .605-.194 1.113-.587 1.528-.388.411-.99.673-1.808.789.298.142.523.284.68.422.329.303.639.68.93 1.133l1.47 2.317h-1.406l-1.125-1.768a14.515 14.515 0 00-.811-1.174c-.213-.269-.404-.46-.572-.568a1.623 1.623 0 00-.512-.224 3.433 3.433 0 00-.624-.04H28.67v3.774h-1.128l.003-.004zm-7.92 0v-8.502h6.14v.997h-5.011v2.613h4.69v.998h-4.69v2.896h5.213v.998h-6.342zm-8.615 0v-8.502h1.155l4.462 6.674v-6.675h1.08v8.503h-1.154l-4.463-6.675v6.675h-1.08zm-7.886 0v-8.502h6.14v.997H4.255v2.613h4.69v.998h-4.69v2.896h5.213v.998H3.125zM150.67 61.194h9.438v1.252h-8.331v4.642h-1.107v-5.894zm3.876-7.056v3.214l2.616-.983a36.04 36.04 0 011.97-.676 13.56 13.56 0 01-1.816-.52l-2.77-1.035zm-3.876-2.717l9.438 3.621v1.372l-9.438 3.842v-1.424l2.86-1.091v-3.973l-2.86-1.024v-1.327.004zm0-8.495h9.438v1.285l-7.408 4.952h7.408v1.2h-9.438v-1.282l7.408-4.952h-7.408v-1.203zm0-3.439h9.438v1.252h-9.438v-1.252zm3.704-6.047h1.107v3.992h-3.499a7.077 7.077 0 01-1.102-1.9 5.637 5.637 0 01-.37-2.006c0-.927.198-1.768.594-2.527a3.924 3.924 0 011.719-1.711c.751-.385 1.592-.58 2.516-.58.923 0 1.775.19 2.571.576.796.385 1.387.934 1.771 1.656.385.72.58 1.55.58 2.489 0 .68-.109 1.3-.333 1.85-.22.553-.531.983-.923 1.297-.396.314-.912.553-1.547.713l-.307-1.128c.479-.142.856-.318 1.133-.527.273-.21.493-.508.657-.9a3.3 3.3 0 00.247-1.298c0-.568-.086-1.061-.261-1.48a2.761 2.761 0 00-.688-1.005 3.291 3.291 0 00-.935-.594 4.979 4.979 0 00-1.902-.363c-.845 0-1.547.146-2.119.434a2.77 2.77 0 00-1.263 1.263 3.931 3.931 0 00-.411 1.764c0 .538.104 1.069.314 1.58.209.517.433.905.672 1.17h1.768V33.44h.011zm-3.704-7.867h9.438v1.252h-9.438v-1.252zm5.274-8.45v2.679c0 .572.06 1.017.179 1.334.116.322.307.565.569.73.257.167.541.25.844.25.445 0 .815-.161 1.103-.483.288-.321.43-.833.43-1.528v-2.983h-3.125zm-5.274-1.253h9.438v4.182c0 .841-.086 1.48-.255 1.918a2.065 2.065 0 01-.897 1.046 2.68 2.68 0 01-1.42.393c-.669 0-1.233-.217-1.693-.65-.46-.434-.747-1.1-.874-2.008a3.206 3.206 0 01-.471.755c-.333.366-.755.71-1.256 1.032l-2.572 1.633v-1.558l1.963-1.249a17.993 17.993 0 001.304-.897c.303-.235.508-.448.632-.635.119-.183.201-.374.25-.568.03-.142.045-.37.045-.695v-1.447h-4.19V15.87h-.004zm4.571-9.37c-1.136 0-2.029.307-2.683.916-.654.61-.979 1.375-.979 2.299 0 .923.329 1.711.986 2.32.658.606 1.596.909 2.807.909.766 0 1.435-.131 2.007-.389a2.97 2.97 0 001.331-1.14 3.1 3.1 0 00.471-1.682c0-.886-.303-1.644-.909-2.28-.605-.635-1.618-.956-3.034-.956l.003.003zm.023-1.29c1.562 0 2.788.423 3.674 1.264.886.841 1.327 1.929 1.327 3.26 0 .87-.21 1.655-.625 2.358a4.05 4.05 0 01-1.741 1.6c-.744.365-1.585.549-2.527.549-.942 0-1.812-.191-2.567-.58-.755-.388-1.327-.934-1.712-1.64a4.694 4.694 0 01-.583-2.295c0-.89.217-1.682.643-2.385a4.119 4.119 0 011.756-1.588 5.328 5.328 0 012.351-.542h.004z"/></g></g><defs><clipPath id="clip0_774_3149"><path fill="#fff" d="M0 0h162v85H0z"/></clipPath></defs></svg>