<svg width="183" height="95" fill="none" xmlns="http://www.w3.org/2000/svg"><g clip-path="url(#clip0_1_123)"><mask id="a" style="mask-type:luminance" maskUnits="userSpaceOnUse" x="0" y="-8" width="183" height="96"><path d="M182.329-7.898H0v95h182.329v-95z" fill="#fff"/></mask><g mask="url(#a)" fill="#E9E7DC"><path fill-rule="evenodd" clip-rule="evenodd" d="M109.607 12.413c.018-.235.15-.976.125-1.204-.027-.232-.132-.474-.204-.694-.033-.1-.016-.183-.059-.28a3.2 3.2 0 0 0-.227-.423c-.154-.24-.344-.395-.569-.595-.143-.126-.3-.313-.473-.42a3.775 3.775 0 0 0-.561-.288c-.258-.108-.395-.21-.704-.276-.237-.05-.754.015-.794-.15-.341-.027-.983.025-1.319.037-.425.017-.52-.027-.933.051-.309.057-.745.219-1.047.308-.202.06-.388.194-.586.267-.446.163-.894.288-1.32.51-.377.197-1.062.709-1.062.569 0 0-.349.183-.625.494-.203.23-.487.375-.723.573a16.746 16.746 0 0 0-1.64 1.594c-.28.31-.588.601-.801.955-.317.528-.497.565-.724.9-.194.283-.375.66-.547.946-.07.115-.138.232-.205.348 0 0 .054.02.03.063-.116.206-.33.48-.433.684a15.55 15.55 0 0 0-.562 1.231 11.644 11.644 0 0 0-.5 1.524c.035-11.554-4.188-16.509-4.188-16.509 1.665 1.422 4.313 5.498 4.888 11.69.16-.143.262-.315.455-.463.149-.113.253-.344.393-.556.14-.213.185-.14.297-.374.098-.206.329-.764.406-.985.093-.272.165-.836.222-1.128.055-.284.095-.296.113-.595.012-.206.034-.876.027-1.088-.009-.265-.051-.078-.091-.353a7.61 7.61 0 0 0-.212-.991 8.985 8.985 0 0 0-.514-1.365c-.067-.14-.242-.413-.386-.748-.14-.322-.302-.333-.425-.503a8.612 8.612 0 0 0-.36-.472c-.376-.447.028-.148-.323-.548a9.38 9.38 0 0 0-.606-.63c-.143-.135-.402-.276-.546-.399-.168-.14-.223-.26-.393-.385a9.565 9.565 0 0 0-.432-.3c-.534-.349-1.272-.423-1.61-.772-.135-.14-.614-.328-1.02-.461a8.355 8.355 0 0 0-.33-.102c-.17-.049-.098.092-.229 0-.2-.14-.58-.197-.722-.225a10.047 10.047 0 0 0-.805-.12c-.224-.022-.35-.025-.35-.025.122.254.298.351.367.665.078.349.193.696.184.984-.005.176.145.468.175.64.036.2.107.22.13.423.024.208-.014.636-.018.888-.003.226.06.372.064.596.006.301.076.754-.012 1.115-.089.367-.023.532-.045.9-.018.284.072.518.052.793-.019.272-.147.584-.162.848-.024.394-.053.778-.042 1.148.017.558.275 1.512.276 1.582.005.312-.103.023-.034.309.057.234.099.459.236.662.095.14.185.298.271.442.225.374.367.693.648.969.143.14.365.27.519.387.194.147.234.287.534.384.201.066.38.184.573.253a4.316 4.316 0 0 0 1.761.247c.272 1.712.273 3.275.228 4.365v-.002a6.066 6.066 0 0 0-.533-1.445c-.071-.137-.159-.412-.299-.548-.022-.022.036-.03.022-.052-.115-.18-.295-.299-.429-.466-.211-.263-.462-.438-.715-.664-.232-.21-.284-.312-.548-.484-.2-.13-.277-.08-.462-.233a3.888 3.888 0 0 0-.9-.511c-.104-.037.008.024-.153-.015-.098-.024-.398-.146-.492-.169a3.204 3.204 0 0 0-.953-.066c-.238.021-.128-.068-.374-.071a3.333 3.333 0 0 0-.68.041c-.209.032-.515.162-.859.255-.21.057-.15.085-.339.188-.202.109-.395.194-.572.336-.092.073-.189.244-.282.313-.394.288-.323.404-.428.539-.136.173-.151.119-.256.316.138-.007.296.025.414.025.21 0 .417-.027.62-.016.203.012.538.084.733.107.177.02.213-.007.384.022.194.034.04-.034.226.011.172.041.558.216.73.242.302.046.487.15.65.21.184.068.388.068.565.144.176.078.214.189.381.275.198.102.39.14.518.303.139.175.728.326.907.453.112.079.01.091.118.172.131.102.259.206.383.312.137.117.208.235.338.358.13.124.32.252.442.379.158.165.496.455.64.623.151.179.108.237.243.418.075.101.147.2.217.3.065.092.203.2.264.292.115.175.146.33.247.5.713 1.21 1.036 2.26 1.036 2.629.465-3.586 1.82-6.254 3.598-8.147.513-.546.724-.91 1.353-1.236.363-.187 1.054-.646 1.397-.848.272-.16.15-.22.716-.475.424-.19.84-.381 1.265-.533.348-.124.218-.214.567-.304.395-.102 1.268-.198 1.658-.259.336-.052.747-.15 1.077-.171.251-.017.813.104 1.058.104.355 0 .312-.042.648.008.349.05.716.059 1.008.227.299.171.407.043.579.114.17.07.516.242.675.324.319.166.384.332.653.542.161-.273.299-.554.387-.847.135-.459.031-.124.057-.44"/><path d="M30.407 35.078v-7.657H13.095v51.047h7.661v-15.01h7.354v-7.657h-7.354V35.078h9.651zm20.17 25.472c2.606-2.194 4.187-5.614 4.187-9.598V39.928c0-7.298-5.207-12.507-12.511-12.507h-8.784v51.047h7.662V63.46h1.122c.41 0 .766 0 1.175-.05l3.88 15.058h7.866l-4.597-17.917zm-3.474-9.086c-.61 3.828-2.5 4.336-5.973 4.336V35.077h1.635c2.806.152 4.338 2.093 4.338 4.85v11.537zM67.94 27.421c-6.18 0-10.726 4.342-10.726 10.566v29.916c0 6.123 4.445 10.566 10.57 10.566S78.51 74.128 78.51 67.903V37.987c0-6.122-4.442-10.566-10.57-10.566zm2.908 40.48c0 1.991-1.07 2.909-3.064 2.909-1.89 0-2.909-1.02-2.909-2.908V37.986c0-1.99 1.123-2.907 3.064-2.907 1.942 0 2.91 1.019 2.91 2.907v29.916zm32.071-23.735v-3.423c0-1.479-.05-2.957-.41-4.44-1.225-4.849-4.953-8.931-10.263-8.931-6.944 0-10.672 6.224-10.672 12.556 0 4.644 1.533 8.624 4.597 12.097 1.122 1.277 2.4 2.4 3.626 3.575 3.42 3.112 5.412 5.56 5.412 10.36 0 1.786-.766 4.898-3.015 4.898-3.622 0-2.958-6.736-2.958-9.136h-7.662v2.248c0 1.888-.053 3.776.41 5.663 1.225 4.952 4.851 8.882 10.209 8.882 1.483 0 2.912-.41 4.24-1.019 4.391-2.044 6.436-6.892 6.436-11.537 0-7.453-3.166-11.639-8.275-16.335-3.217-3.01-5.36-5.053-5.36-9.697 0-1.889.61-4.902 3.011-4.902.512 0 .971.258 1.381.512 2.09 1.428 1.631 6.38 1.631 8.628h7.662zm1.019-16.745v7.659h11.928c.369 0 .505.48.19.674l-2.848 1.767a5.885 5.885 0 0 0-2.783 5v35.947h7.661v-43.39h6.535V27.42H103.94l-.002.001zm41.211 7.657v-7.657h-17.465v51.047h17.465v-7.659h-9.804v-7.35h6.994V55.8h-6.994V35.078h9.804zm13.786-7.657c-6.178 0-10.722 4.342-10.722 10.566V78.47h7.657V63.46h5.976v15.01h7.657V37.987c0-6.122-4.442-10.566-10.57-10.566m2.914 14.751v13.63h-5.976c-.05-5.514-.05-11.025-.05-16.538 0-2.4.152-4.186 3.114-4.186.971 0 2.093.308 2.606 1.279.614 1.224.308 4.336.308 5.815"/></g></g><defs><clipPath id="clip0_1_123"><path fill="#fff" d="M0 0h182.329v95H0z"/></clipPath></defs></svg>