<svg width="139" height="85" fill="none" xmlns="http://www.w3.org/2000/svg"><g clip-path="url(#clip0_774_3176)"><mask id="a" style="mask-type:luminance" maskUnits="userSpaceOnUse" x="-28" y="-54" width="194" height="194"><path d="M165.24-53.476H-27.397v192.637H165.24V-53.476z" fill="#fff"/></mask><g mask="url(#a)" fill-rule="evenodd" clip-rule="evenodd"><path d="M119.075 9.641c.94-.002 1.893-.077 2.834-.088.423-.005 1.046-.039 1.449.006.211.025.458.023.682.064.331.061.261.095.483.226-.118.028-.168.068-.293.096-.5.108-1.139.12-1.683.255a2.2 2.2 0 00-.571.209c-.446.23-1.06.333-1.56.365-.209.013-.487.122-.635.15l-.321.117c-.145.018-.587.131-.895.154-.342.025-1.071.057-1.355.204-.74.387-.632 1.033-.752 1.828-.043.288-.174.482-.283.725-.14.308-.14.47-.222.793-.075.292-.111.507-.249.74a.413.413 0 01-.19-.176c-.105-.161-.1-.125-.127-.254-.093-.455-.059-3.065-.057-3.49.002-.563-.038-1.106.129-1.593.055-.157-.009-.06.071-.134l.115-.093c.102-.07.206-.043.358-.043.417.025 2.408-.061 3.072-.063m-24.487.714c.326-.195 1.004-.229 1.427-.26.462-.035.852-.017 1.312-.005.888.023.394-.018 1.282.088.202.025.412.057.587.125.06.022.199.06.197.133-.005.139-.444.322-.573.417-.073.055.002.016-.118.055l-.136.043c-.097.02-.213.009-.315.009-.41-.005-.328.052-.582.145-.263.095-.263.072-.571.113-.433.057-.804.095-1.264.13-.426.03-.813.343-.992.407-.494.172-.732.095-1.042.317l-.347.279c-.131.083-.41.11-.593.176-.23.084-.304.26-.474.397-.224.18-.392.215-.498.373-.09.132-.732.546-.79.607-.064.07-.089.105-.162.168-.122.107-.326.134-.439.25-.22.226-.013.264-.469.509l-.056.034c-.096.068-.093.082-.123.218-.145.652-.403.797-.464.901-.086.15-.111.37-.168.553l-.147.385c-.097.172-.159.179-.222.285-.102.17-.111.655-.145.88-.059.393-.061.842-.104 1.265-.105 1.022-.268.877-.293 1.029-.172-.258-.33-.988-.416-1.334-.039-.159-.109-.374-.193-.499-.152-.23-.059-.208-.045-.561.016-.395.106-.06.179-.861.009-.111.025-.195.04-.313.057-.403.028-1.117.282-1.438.124-.159.199-.161.278-.413.032-.095.036-.185.073-.287.294-.827.323-.195.686-1.042.102-.238.238-.14.358-.324.109-.163.12-.288.272-.406.072-.056.165-.063.23-.129.168-.167 0-.254.549-.49.218-.092.118-.14.351-.339.08-.068.138-.063.238-.118l.43-.26c.324-.363.526-.283.852-.421.16-.069.168-.016.326-.125.245-.172.177-.109.422-.233.262-.134.951-.105 1.264-.35.04-.031.009-.008.047-.038l.052-.036.007-.01zm-34.067.867c.105-.029.22-.038.356-.056.448-.06.51-.295.838-.421.492-.19.983-.098 1.488-.184.075-.014.254-.061.322-.1.057-.031.032-.018.068-.054l.102-.102c.195-.13.661-.224.922-.08l.301.202-.285.279c-.077.086-.014.059-.152.14-.43.256-.109.422-1.128.594-.45.077-.297.12-.566.308-.145.102-.456.186-.66.226-.53.107-.573.474-1.105.628-.263.075-.138.02-.252.21-.108.184-.337.257-.511.35-.218.117-.234.296-.47.419l-.461.19c-.24.063-.14.147-.306.33-.186.207-.415.139-.519.352-.125.253-.17.292-.433.419-.163.08-.163.251-.299.362-.136.111-.35.204-.396.263-.063.084-.07.184-.134.288-.156.26-.358.197-.44.421-.11.301-.171.33-.375.517-.227.208-.268.6-.471.842-.087.102-.159.093-.227.19-.061.087-.159.549-.193.68-.067.26-.274.308-.38.478-.098.156-.16.428-.252.614-.047.095-.097.204-.167.276-.104.102-.116.068-.19.23-.132.28-.12.692-.277 1.034-.066.145-.1.145-.176.27-.252.4-.318 1.635-.451 2.14-.043.164-.084.184-.145.309-.184.376-.102.34-.163.709-.02.127-.037.224-.057.358-.04.283-.027.541-.059.817-.043.365-.294.512-.301.52-.045-.067-.093-.091-.143-.157-.154-.204-.122-.492-.154-.727a9.056 9.056 0 01-.07-1.24c0-.634-.016-1.832.075-2.423.115-.746.31-.619.403-1.267.254-1.764.408-1.26.596-1.902.065-.227.047-.476.127-.712.142-.426.228-.299.344-.485.066-.104.063-.224.283-.552.093-.14.059-.109.204-.206.08-.052.129-.14.195-.23.131-.176.122-.377.324-.504.278-.177.197-.263.3-.546.13-.347.27-.356.463-.573.186-.211.215-.367.469-.542l.19-.17.016-.015c.197-.193.188-.272.446-.415.132-.075.283-.13.408-.22.018-.013.093-.084.111-.1.152-.147.279-.26.494-.332.27-.091.186-.281.387-.456.082-.07.181-.086.279-.133.156-.075.14-.116.204-.225.056-.1.274-.199.392-.256.242-.115.595-.072.786-.228.145-.12.088-.159.376-.306l.038-.018c.027-.012.025-.012.064-.023M23.98 9.564c.335.004.682.027 1.044.038.519.012 2.839 0 3.178.204-.018.06.028.09-.192.118-.347.043-1.346.195-1.575.267-.423.134-.292.19-.645.304l-.555.116c-.537.047-.664.255-.689.838-.056 1.336-.043 1.515-.33 2.854-.168.777-.11 1.352-.182 1.937-.081.67-.045 1.361-.093 2.036-.018.258-.027.759-.083.981-.089.344.068.324-.175.632-.222.28-.195.845-.244 1.042-.034.14-.064.313-.082.455l-.07 1.634c-.012.537.05.294-.066.802-.072-.594-.05-1.736-.038-2.354l-.032-7.04c.004-.82-.039-3.967.007-4.624.156-.127.561-.247.824-.242M5.491 8.342l2.322.108c.394.005.732.068 1.133.077.453.012.815.075 1.133.091.672.036.978.054 1.506.46.19.145.057.138.215.21-.177.01-.26.073-.41.087-.179.015-.288.038-.45.063l-3.625.32c-.222.036-.213.081-.372.126-.516.143-.724.13-1.264.197-.222.027-.22.03-.319.202-.095.16-.068.222-.07.421 0 .465-.095 3.101-.175 3.54-.04.225-.079 1.736-.16 2.055-.025.1-.078.118-.114.268-.02.086-.02.206-.047.312-.105.401-.143.92-.148 1.341 0 .238 0 .478-.004.716-.002.274-.045.43-.052.687-.018.539-.036 1.153-.172 1.68-.025.096-.02.207-.023.309-.002-.134-.095-.619-.116-.768-.068-.483-.068-1.217-.129-1.783-.047-.458-.022-3.899-.022-4.658l-.005-5.1c0-.169-.023-.456.02-.603.028-.089.164-.329.232-.363.206-.104.879-.02 1.116.005zm-1.098 13.27z" fill="#E9E7DC"/><path d="M17.305 63.246c.125.055.283.061.383.163.26.265.496.293.657.476.1.116.142.224.249.317.12.109.235.09.387.18.277.16.098.17.476.36.756.378.417.237.813.62.3.29.304.136.512.625.036.086.127.342.172.392.104.12.18.09.283.286.077.142.087.253.175.391.129.2.138.154.276.29.243.243.234.694.476.925.301.287.272.663.421 1.012.084.197.148.163.263.304.084.1.14.244.193.376.106.258.063.392.292.539.306.195.294.62.548.883.1.105.192.186.27.297l.194.372c.077.11.252.115.365.201.202.15.113.293.387.447l.227.192c.068.077.109.209.156.292.068.12.277.111.422.385.249.472.072.23.874.553.4.163.152.222.763.367 1.165.276.65.45 1.679.59.183.024.34.033.514.053.161.02.292.06.471.096.177.033.379.074.528.16.32.186.435.152.816.198.16.02.367.038.516.043.351.009.73.06 1.074.063.727.002 1.497.011 2.21-.054.322-.03.961-.034 1.23-.17.175-.089.479-.15.678-.19.453-.089 1.49-.193 2.027-.243 1.068-.097.852-.376 2.984-.392 1.146-.009 2.045.027 3.158.247.154.03.306.066.478.093.158.025.303.08.462.102.654.097 1.407.09 1.977.29l.875.258c.315.068.657.09.987.147 1.267.213.487.37 1.688.58.342.061.643.09.92.218.654.299 1.094.335 1.828.435.274.036.702.12.901.235.451.265 2.048.326 2.789.58.308.107.61.16.942.188.184.014.36.027.535.032.206.007.317.045.507.052.66.03 1.514.063 2.143.136.718.081 1.436-.057 2.154-.077.288-.007.802-.014 1.067-.055.322-.052.716-.054 1.027-.106.31-.05.648-.118.933-.2.308-.088.56-.203.886-.248.346-.048.657-.12.953-.18.159-.031.492-.208.832-.3.44-.12.92-.153 1.347-.32.168-.066.198-.12.386-.184.3-.102.607-.131.933-.201.831-.184.473-.485 1.688-.58a8.488 8.488 0 001.8-.315c.662-.197 1.482-.168 2.254-.163 1.156.004 2.003.349 2.957.442.269.027.781.058 1.01.126.24.07.364.175.564.272.063.032.147.06.217.08.31.092.576.14.91.217.314.073.617.122.91.231.273.102.604.143.93.2.331.056.703.045 1.013.092l1.407.295c.537.145.926.15 1.486.21.367.041.713.012 1.082.06l.499.06c.147.019.383.025.514.057l.976.15c.72.09 1.5.043 2.227.04.387 0 1.169-.065 1.513-.183.465-.16.986-.159 1.482-.22.301-.038.718-.08.924-.206.616-.383 1.071-.33 1.744-.525.329-.096.453-.247.795-.338.277-.075.628-.134.87-.233.157-.064.209-.143.347-.22.428-.24 1.977-.31 2.53-.31.795 0 2.784.199 3.468-.075.125-.05.077-.052.181-.116.059-.036.046-.022.082-.04l.102-.073c.186-.174.435-.14.587-.251.122-.089.131-.225.231-.333.124-.136.226-.127.344-.222.172-.139.222-.986.421-1.278.154-.227.039.036.202-.365.263-.65.202-.387.494-.64.111-.096.122-.23.177-.386.077-.217.106-.174.246-.324.243-.26.302-.69.535-.867.082-.064.104-.041.184-.114.14-.129.115-.22.217-.349.136-.167.179-.124.342-.226.17-.109.136-.13.222-.31.07-.148.184-.184.31-.26.238-.146.157-.465.472-.662.106-.066.086-.012.145-.12.036-.066.049-.136.088-.211a1.86 1.86 0 01.102-.168l.111-.158c.188-.254.528-.447.756-.675.182-.184.41-.331.574-.413.149-.074.101-.256.437-.575.306-.29.403-.612.6-.8.082-.077.104-.068.177-.124.208-.166.238-.48.496-.639.235-.145.226-.478.432-.698.447-.473.367-.842.657-1.162.025-.03.046-.04.073-.075.054-.07.011-.004.054-.095.003-.007.007-.013.009-.02l.034-.084c.043-.113.095-.301.12-.437.1-.546.066-.8.392-1.316.098-.154.141-.367.213-.53.016-.036.03-.052.034-.06.122-.2.179-.346.388-.486.233-.159.208-.313.355-.471.073-.077.129-.082.249-.091.059 0 .025-.018.046.025l-.039-.122c.143-.14.15-.089.252-.2l.027-.032c.02-.022.036-.038.059-.06.247-.257.292-.277.641-.465.195-.107.152-.251.505-.39.679-.265.514-.398 1.119-.64.403-.162.29-.397.652-.66.272-.197.347-.718.58-.97.326-.35.374-1.017.51-1.485.041-.143.084-.211.127-.322.041-.109.059-.233.102-.349.102-.28.061-.596.387-.929.376-.385.349-.584.535-.777.084-.088.161-.124.24-.206.163-.17.174-.315.423-.446.424-.222.256-.159.519-.376.177-.145.351-.236.523-.372.184-.145.293-.294.476-.419.258-.176.272-.131.451-.41.149-.233.269-.303.412-.484.134-.168.17-.383.272-.592.125-.253.279-.262.408-.487.124-.215.172-.342.344-.523.412-.43.243-.514.501-.84.081-.102.154-.12.238-.211.138-.147.213-.378.346-.548.159-.2.243-.207.342-.52.145-.454.075-1.136.075-1.678v-1.76c.011-2.356 0-4.714.002-7.07v-5.31c-.004-.58-.043-1.177.191-1.574.056-.095.142-.17.194-.251.175-.274.191-.741.358-.986.286-.416.22-.077.462-.88.077-.257.259-.422.324-.542.238-.444.134-.684.385-.929.229-.224.231-.179.376-.517a2.23 2.23 0 01.311-.557c.26-.349.242-.992.509-1.282.198-.213.209-.27.311-.58.351-1.053.396-.36.507-1.248a7.55 7.55 0 00.036-.824l.005-12.38c0-.562.029-1.212 0-1.76-.016-.274-.204-.415-.469-.415-1.427 0-2.725.098-4.12.297-.265.038-.508.068-.784.11l-2.435.193c-.533.01-1.292.089-1.702.091-.566.002-1.125.08-1.669.088-.759.012-.908.084-1.672.089l-1.583.176c-.261.028-.612.016-.863.034-.791.057-1.756.12-2.535.123-.331 0-2.352.045-2.544.102-.392.117-2.05.11-2.526.113l-5.251.038c-1.001 0-1.477.12-2.537.089-.156-.005-.229-.032-.417-.032-.179 0-.235.027-.387.032-.274.011-.632-.027-.89.007-.263.034-.458.083-.793.034-.283-.041-.596-.012-.886-.012-.385-.002-.319-.086-.788.016-.254.054-.585-.02-.852-.018-.283 0-.403.061-.834.061-.67 0-.38-.038-.808-.084-.356-.036-1.28.073-1.667.084-.626.018-1.05.084-1.67.093-.297.005-.541.052-.82.048a9.332 9.332 0 00-1.416.197c-.45.115-.32.224-1.232.378-1.108.186-.605.308-1.56.555-.526.136-.327.179-.649.426-.199.152-.491.206-.697.376-.1.084-.198.172-.306.23-.114.062-.22.11-.335.17-.177.096-.182.09-.309.23-.092.102-.208.147-.333.204-.713.335-.638.561-1.114 1.03-.224.222-.322.492-.44.605-.124.118-.178.082-.3.233-.094.116-.116.25-.207.331-.093.084-.21.118-.317.22-.147.143-.24.44-.435.639-.594.602.179 1.146-1.124 1.044-.12-.193-.16-.313-.242-.535-.14-.382-.392-.543-.605-.885-.154-.247-.192-.2-.383-.363-.14-.122-.215-.28-.344-.4-.13-.119-.283-.207-.387-.359-.184-.267-.388-.321-.546-.589-.17-.283-.347-.337-.567-.566-.21-.22-.498-.385-.779-.53-.056-.03-.066-.025-.115-.066-.175-.138-.184-.215-.433-.312-.469-.184-.428-.336-.913-.58-.159-.08-.358-.148-.478-.27-.317-.324-.643-.306-1.028-.491-.184-.089-.25-.2-.467-.279-.38-.138-.788-.163-1.169-.324-.204-.086-.297-.15-.523-.222-.401-.125-1.228-.179-1.873-.365-.42-.12-.825-.242-1.262-.256-.467-.016-.94-.081-1.402-.088-1.382-.023-7.163-.193-8.361.285-.247.098-.515.139-.757.225-.415.147-1.128.043-1.858.38-.18.084-.312.152-.53.215-.586.17-.528.087-1.105.386-.349.178-.727.224-.981.539-.172.217-.195.174-.462.285-.365.152-.548.415-.906.585-.111.052-.166.056-.256.13-.073.062-.109.114-.184.175-.287.234-.668.279-.917.573-.238.281-.494.51-.718.805-.25.326-.773.8-1.099 1.14-.127.133-.26.219-.374.37-.203.277-.226.755-.562.932-.151.081-.337.237-.468.28-.19-.117-.283-.59-.372-.856-.095-.288-.28-.496-.457-.734-.43-.575-.363-.38-.58-.643-.055-.066-.08-.1-.125-.177-.111-.188-.313-.256-.428-.466-.281-.512-.222-.315-.541-.682-.055-.061-.066-.093-.136-.163-.168-.168-.34-.216-.508-.388-.28-.287-.437-.233-.768-.423-.2-.114-.183-.14-.333-.265-.15-.123-.224-.123-.387-.209-.338-.179-.265-.387-.691-.532-.57-.195-.482-.252-.788-.406-.215-.106-.585-.11-.995-.228-.12-.034-.285-.066-.369-.161l-.016-.025c-.066-.075-.387-.195-.494-.245-.081-.038-.278-.047-.376-.059-.487-.05-1.166-.068-1.572-.228-.152-.062-.265-.136-.428-.161a11.275 11.275 0 00-1.656-.13c-.2 0-.433.012-.627-.006-.596-.052-1.122-.048-1.731-.05-.804 0-1.61-.011-2.417-.01-1.57.008-3.146-.078-4.714-.085-.396 0-.743-.089-1.133-.089l-1.164-.034c-.179-.013-.367-.056-.564-.056a3.63 3.63 0 01-.564-.039c-.3-.038-.809-.04-1.14-.05-4.256-.144-2.922-.206-5.366-.22-1.364-.006-2.71-.196-4.044-.402-.67-.105-.847-.046-1.375-.116-.439-.059-.93-.054-1.384-.075l-1.4-.09c-.507-.003-.865-.07-1.372-.089-.265-.009-.92-.122-1.341-.151-.216-.014-.462-.055-.666-.08-.385-.047-1.05-.027-1.36-.102l-2.12-.088c-.41-.005-1.932-.181-2.086-.09-.107.063-.238.287-.242.473-.019.976.004 1.975.004 2.954 0 7.853.059 15.72.059 23.565 0 3.944.007 7.856.027 11.811.002.512-.004.988.059 1.437.034.242.154.299.242.5.18.41.193.786.426 1.033.331.349.277.702.496.997.114.152.197.188.327.39.129.199.174.242.391.35.497.25.1.218.895.596.09.043.136.07.24.116.114.05.125.075.204.16.07.073.109.128.204.182.55.324.258.267.555.55.138.132.292.173.399.35.115.19.09.287.256.457.265.272.333.68.437 1.058.12.428.26.6.383 1.08.027.109.061.209.081.302.023.106.016.22.032.33.08.53.184.542.335.795.114.193.193.58.263.814.03.1.068.188.111.274.093.19.17.106.476.627.11.19.24.206.392.351.151.145.172.29.296.42.064.067.136.115.202.187.174.193.193.43.45.653.298.254.352.591 1.138 1.069.088.052.15.093.218.172.36.401.41.286.58.526.124.176.153.253.326.387.414.324.185.188.373.374.136.133.31.17.447.299.138.131.19.274.367.378.097.057.14.064.228.13.102.076.1.094.18.18.253.286.686.254.933.56.068.084.095.138.172.215.068.068.127.107.2.159.185.136.198.208.341.376.152.176.34.23.428.317.09.09.07.109.188.2.313.242.36.106.675.427.252.256.576.2.415.327l.04.016-.006.006zM3.009 8.674c0-.449-.046-1.203.034-1.638.102-.562 1.853-.376 2.276-.31.18.027.367.01.553.022.163.01.306.05.476.057.408.016.67.052 1.017.088.217.023.43.018.616.093.338.134 1.923.118 2.603.122.349 0 .659.05 1.044.05.406 0 1.896.041 2.157.012.416-.048 1.758.072 2.288.05.23-.01.233-.037.475-.003.182.025.354.066.537.055.714-.046 1.418.036 2.118.036.329 0 .49.036.804.09.22.039.284.07.467.157.394.185.424.07.421 1.119 0 .962-.036 1.93-.009 2.893l.007 6.084c.007 1.853.104 1.812-1.065 1.812l-1.753-.068c-.183-.02-.446-.172-.602-.172-.322 0-.832.098-1.167-.02-.127-.046-.095-.098-.233-.18-.177-.104-.52-.065-.775-.067-.575-.005-.972-.09-1.552-.089-.353 0-.732-.054-1.015.102l-.004.981c0 .2.07.399.303.399.413 0 .922-.05 1.303.007.129.018.188.07.335.077.8.043.557-.084 1.522.115.358.075.442-.03.775-.03.72 0 .745.107 1.135.148l.879.07a.617.617 0 01.125.263l.054.231c.038 1.414-.005 2.85.007 4.266.002.349-.023.734-.005 1.076.018.321.034.661.03 1.012-.005.363-.053.655-.014 1.026a6.913 6.913 0 01-.063 1.756c-.034.204-.077.371-.236.444-.347.156-2.256-.061-2.75-.07-.224-.005-.478-.055-.684-.089a8.309 8.309 0 00-.657-.093c-.29-.024-.62-.052-.931-.138a.958.958 0 00-.322-.04c-.324-.007-.752-.184-.804.226-.018.14-.038.22-.054.308-.037.2.022.458.022.668l.032 9.934c-.004.43.116 1.264-.385 1.363-.614.123-1.357-.016-1.94-.022-.504-.005-1.995-.08-2.448-.143-.564-.08-1.108-.13-1.651-.288-.471-.138-2.343-.147-2.87-.353-.168-.066-.306-.132-.354-.308-.145-.557-.07-2.395-.072-2.995-.03-5.926 0-11.852-.005-17.778V8.674h.005zm129.797-1.362c.492-.06 1.568-.163 1.899.227.16.188.081 3.232.083 3.61.005.717.03 5.696-.004 6.11a6.2 6.2 0 00-.023.424c-.007.634-1.021.611-1.581.645-.877.055-1.638.07-2.462.26-.2.046-.172.012-.247.198-.147.365-.077.886-.077 1.282l-.014 12.677c.012 2.933-.022 5.867 0 8.798.005.657.166 1.75-.505 1.794l-1.88.088c-.421.012-.852.03-1.23.075-.204.025-.435-.014-.628.043-.407.115-.557.011-.86.118-.148.052-1.196.118-1.48.163-.475.075-1.343.136-1.83.138-.308 0-.655-.009-.931.023-.294.034-.97.086-1.21-.118-.068-.059-.059-.07-.104-.134-.115-.158-.19-.194-.222-.432-.029-7.745.052-15.459.05-23.17v-.507c0-.113-.338-.245-.505-.24-.247.005-.397.068-.687.061a16.27 16.27 0 00-1.461.03l-1.73.004c-.784.002-1.097.131-1.108-.988-.027-2.754.007-5.509 0-8.263 0-.367-.068-1.622.111-1.862.079-.107.224-.15.376-.163l18.263-.886-.003-.005zm-26.619.95c.299 0 .662.015.954-.007.863-.064 1.919-.08 2.775-.08h1.73c1.074-.004 1.183-.117 1.185.408v1.402c0 1.362.048 8.842-.025 9.578-.022.236 0 .387-.192.482-.039.018-.007.005-.041.018-.195.075-2.648.016-3.162.023l-.986-.03c-.983-.02-1.971.014-2.954.008-.183 0-.348-.037-.566-.037l-.627.012c-.209 0-.356-.034-.537-.037-.197-.002-.329.032-.537.034-.202 0-.335-.034-.537-.04-.211-.005-.353.02-.539.036-.252.022-.222.081-.277.294-.106.424-.154.397-.054.843.07.313.537.215.868.217.19 0 .426.02.546.012 1.135-.093 1.726.025 2.793-.05 6.376-.464 7.989 5.851 7.828 11.476-.276 9.609-4.077 11.686-12.241 11.693-.29 0-.501.045-.777.036-.249-.006-.483-.04-.775-.038l-.836.007c-1.504-.003-6.918.018-7.24-.039H87.66c-.252 0-.94.055-1.097-.056-.358-.25-.276-.365-.276-.889a700.41 700.41 0 01.004-9.516c0-.226.089-.52.277-.641.16-.102.634-.125.883-.125l1.62-.079-.055-.004c1.072-.016 2.139-.007 3.208-.064.734-.038 1.48-.04 2.209-.093.294-.022.623.012.901-.022.39-.046.8 0 1.153-.041.202-.023.277-.059.54-.057.215.002.34.05.564.023.174-.02.337-.061.539-.059.192.002.4.027.586-.011l.465-.134a2.9 2.9 0 00.093-.632c.004-.399.077-.614-.247-.641l-.449-.027c-1.26-.046-2.573-.041-3.817-.06-.482-.006-1.017.019-1.465-.022-7.897-.718-10.2-13.116-6.087-17.841.152-.175.154-.315.29-.455.147-.154.28-.123.385-.333.251-.503.333-.356.494-.61.21-.335.475-.394.573-.53.15-.204.115-.244.376-.369.589-.28.043-.172.886-.58.67-.326.342-.399.915-.57.51-.153.484-.318.98-.486.635-.212 1.058-.11 1.5-.376.102-.06.116-.074.238-.117.358-.132 1.516-.227 1.93-.245.254-.011.483-.014.718-.03.258-.018.367-.052.655-.054.156 0 .315.005.469-.016.06-.009.15-.018.208-.03.052-.01.125-.044.159-.044.5 0 1.044.031 1.51-.105.288-.083.177-.083.517-.043.295.034.44.014.707-.074.389-.13.435.101 1.078-.055.399-.097.795-.043 1.201-.04 1.064.004 2.127-.073 3.191-.073l-.002.004zm-84.569.978c0-1.493-.061-1.615 1.02-1.617l7.724.244c.213 0 .086.023.217.048.383.07.78.047 1.158.095l.358.113c.308.02.616.073.922.073.349 0 .627.007.956.04.566.057 1.357.025 1.968.032.76.01 3.1.086 3.7.306.502.181 1.048.252 1.669.322.815.09.892.335 1.513.489 1.3.322.702.292 1.402.573.243.098.508.15.687.338.242.256.61.394.836.657.172.199.423.28.561.45.087.105.1.17.204.272.109.107.177.12.293.21.129.103.124.164.224.293.156.204.358.238.484.503.096.2.182.505.336.639.224.195.238.337.34.663.1.318.228.386.358.648.122.247.154.48.217.757.068.283.075.573.206.809.088.156.068.215.118.39.088.31.197.946.204 1.277l.018.38c.047.223.095 1.235.097 1.468.002.655.061 1.78-.052 2.386-.115.616-.047 1.862-.308 2.371a2.94 2.94 0 00-.288 1.09c-.015.168-.054.31-.093.469l-.151.415c-.066.129-.175.197-.231.332-.064.148-.077.31-.138.46-.087.211-.125.424-.284.576-.14.136-.201.369-.312.525-.105.148-.209.177-.342.25-.15.081-.107.199-.231.337-.132.145-.168.134-.327.238l-.24.33c-.256.338-.301.111-.541.621-.08.17-.159.222-.154.424l.047.41c.177.709.075.469.157 1.123.004.043.009.091.018.134.056.267.063.541.186.797.163.34.031.284.39.512.183.116.57.043.797.048l.983.034c.272 0 .632-.018.788.24.317.526.229.689.229 1.416l.02 1.701c-.038 1.62.007 3.242.005 4.861 0 .422.052 1.969-.107 2.252-.081.145-.226.301-.4.301-1.251 0-2.542.046-3.788-.03-.204-.01-.308.023-.478.03-.356.014-.653-.068-1.006-.018-.526.075-2.08-.013-2.632-.013l-1.253-.032c-.176 0-.224.032-.387.032-.24 0-.43-.102-.662-.111-.154-.007-.536.185-.901.04-.168-.065-.24-.108-.422-.027-.145.066-.337.012-.416.066-.053-.09-.037-.111-.048-.138-.054-.123-.24-.14-.322-.322-.446-1.02-1.311-10.864-1.746-11.229l-.367-.095c-.08-.011-.18-.036-.272-.02-.315.054.992 9.502 1.03 10.742.035 1.062-.554.828-2.167.815-2.268-.018-4.535-.061-6.8-.039l-2.418-.058c-.423 0-.781-.01-1.155-.066a1.028 1.028 0 01-.605-.322c-.083-.09-.095-.056-.17-.129-.077-.075-.172-.313-.185-.442l-.005-7.455c.01-2.593-.032-5.19 0-7.785l-.03-1.282c0-.254.03-.429.03-.657l-.032-16.584-.004.004zm29.48 24.16c-.036-.1-.054-.1-.081-.182-.114-.367-.13-1.049-.168-1.452-.066-.675-.174-1.305-.197-2-.011-.372-.102-.63-.127-.983a26.813 26.813 0 01-.088-2.09l.056-2.146c.005-.334.075-.673.118-.961l.086-.745c.066-.41.068-.827.12-1.237.023-.184.066-.338.068-.487.007-.462.046-1.02.224-1.414l.193-.523c.104-.245.15-1.228.378-1.678.132-.261.24-.47.3-.766.099-.508.443-.512.604-1.042.045-.152.09-.286.156-.413.107-.206.13-.165.238-.308.157-.206.195-.507.372-.731.086-.109.174-.157.258-.277.075-.106.111-.22.197-.34.098-.138.181-.165.295-.276.095-.093.14-.197.235-.303.114-.127.181-.152.306-.26.111-.098.14-.202.242-.297l.308-.259c.234-.183.211-.317.558-.514.172-.097.145-.143.262-.274.16-.177.49-.247.682-.426.152-.14.308-.24.515-.326.102-.043.188-.045.271-.109l.234-.213a.924.924 0 01.32-.22c.38-.142.445-.113.744-.33.47-.342 1.21-.306 1.652-.55.326-.18 1.425-.4 1.767-.404.46-.007.598-.036.976-.131a4.71 4.71 0 01.963-.148c.172-.013.068-.034.238-.047l1.79-.093c.405-.005 3.352.016 3.744.102l.491.045c.26.005.644.118.913.184.535.129 2.061.172 2.505.394a.08.08 0 01.019.011c.004.002.013.01.018.011l.038.023c.6.32 1.28.272 1.867.61l.736.362c.279.17.243.294.614.455.13.057.283.111.399.172a.935.935 0 01.17.102c.086.07.063.084.126.14.123.114.467.193.691.415.209.204.363.306.619.48.367.252.743.787 1.05 1.131.304.34.837.772 1.052 1.162.068.127.097.233.204.326.147.127.147.086.251.283.143.274.19.628.297.81.192.32.181.185.408.692.059.132.108.268.179.388.077.133.174.163.253.287.14.222.195.58.259.843.117.487.176.42.326.777.136.322.229 1.404.333 1.878.036.159.068.26.113.424.222.779.243 1.603.288 2.46.079 1.447.054 2.904.052 4.356-.007 10.178-5.548 16.547-15.572 17.324-1.284.1-2.956-.059-4.233-.092-6.86-.188-11.302-5.385-13.273-11.596l-.002-.005zm73.195 12.053c0-.329.066-.401.179-.719.143-.396.2-.441.895-.441.177 0 .324.17.406.335.047.095.07.138.106.25.161.477.304.101.156.824-.049.245-.099.247-.188.376-.036.054-.04.088-.07.14-.007.012-.269.333-.38.365-.105.03-.222.03-.358.03-.292.004-.227.015-.467-.28-.281-.343-.281-.464-.281-.883l.002.003zm3.58 2.745c-.037.073-.052.1-.098.17l-.111.186c-.161.235-.199.582-.625.575-.313-.004-.575-.05-.788-.263-.118-.117-.068-.185-.179-.328l-.014-.016-.088-.12-.066-.086c-.131-.172-.145-.14-.113-.315.12-.65.174-.378.337-.827.166-.457.141-.568.551-.65.401-.081.63-.077.876.263.087.118.132.256.209.387.079.138.143.245.145.453 0 .172.027.444-.034.569l-.002.002zm-6.737 1.728c-.016-.077-.005-.464-.003-.568.003-.168.08-.292.188-.405.082-.084.084-.05.121-.18.061-.224.07-.878.423-1.035.455-.201.231-.176.462-.435.195-.217.988-.249 1.228-.183.516.143.627-.138 1.09.455l.04.05c.03.034.037.045.068.082.227.267.351.3.44.724.14.69.165 1.446.02 2.143-.163.798-.389.451-.661 1.099-.066.156.007.082-.134.16-.204.116-.548.223-.623.275-.224.159-.598.31-.829.13-.22-.175-.181-.198-.614-.284-.292-.059-.17-.213-.469-.421-.281-.195-.385-.367-.419-.741-.022-.254-.238-.435-.326-.868l-.002.002zm-108.905.15c-.041-.24.09-.718.185-.915.263-.532.034-.605.562-1.078.134-.12.138-.15.333-.234.542-.23 1.475-.197 1.772.148.312.364.403.215.532.573.052.147.08.278.13.41l.056.122c.047.073.004.009.04.05.377.426.252 1.701.136 1.9-.05.086-.074.102-.13.168-.236.272-.112.752-.558 1.083l-.55.283c-.318.043-.565.174-.698.13-.098-.035-.086-.062-.383-.157-.181-.057-.252-.07-.38-.188a1.076 1.076 0 01-.132-.138c-.177-.24.004-.077-.265-.272-.252-.184-.363-.909-.564-1.405-.068-.167-.055-.292-.086-.478v-.002zm-2.626.42c-.022-.12.048-.314.075-.431.043-.197.036-.256.138-.399.068-.095.168-.24.27-.27.065-.018.446-.013.528 0 .145.02.228.11.31.197.24.268.106.148.217.32.204.32.351.14.345.734-.007.505-.016.342-.37.68-.192.183-.26.468-.638.419-.453-.062-.399.065-.63-.417-.048-.1-.138-.274-.165-.37-.034-.115-.057-.344-.077-.457l-.003-.007zm1.344 3.25c-.116-.707.224-1.079.659-1.248.31-.123.498.079.636.247.134.163.36.328.374.58.023.425.011.536-.197.758-.75.8-.566.508-1.024.166-.106-.08-.186-.098-.28-.197a.767.767 0 01-.166-.309l-.002.003z" fill="#E9E7DC"/><path d="M50.736 10.315c1.33 0 .78-.406 1.13-.48.123-.026.202-.028.343-.107l.337-.258c.048-.048.066-.102.111-.159.231-.29.494-.229.694-.738.06-.155.063-.333.1-.497.396-.19.337.016.509-.473.118-.333.312-.109.478-.505.054-.127.154-.308.27-.388.097-.065.108-.054.172-.156.197-.317.067 0 .29-.367.067-.11.079-.063.167-.16.09-.1.027-.084.168-.22.038-.039-.007.015.045-.046a.473.473 0 00.07-.108c.148-.308.184-2.041-.104-2.383-.245-.29-1.857-.204-2.304-.204-.247 0-.827.068-1.055.197-.413.233.201.337-.913.398-.22.012-.426-.015-.639.019-.43.065-2.596-.032-3.117.165-.514.195.1.247-.924.39-.582.081-.897.367-1.042.928-.075.29-.5.302-.358.881a.847.847 0 00.224.433c.098.098.075.055.14.188.116.238.22.258.309.347.072.072.067.106.147.181.24.222.564.294 1.024.29.197 0 .376.016.489.165.193.254.193.136.36.326.172.193.41.284.591.694.073.165.093.321.247.41.08.045.15.06.225.104.013.007.081.057.088.061.177.163.02.29.385.449.285.124.365.081.553.253a.085.085 0 00.016.014l.249.229c.118.074.34.131.525.131m0-.005l4.169-4.365zM66.431 33.13c.175.141.077.07.229.132a.053.053 0 01.02.009c.159.072.06.075.39.145a1.3 1.3 0 00.605 0c2.634-.657 1.819-11.322 1.126-12.38-.207-.315-.107-.349-.343-.52-.206-.152-1.064-.347-1.381-.275-.669.157-.739.125-1.115.587-1.26 1.55-.781 11.304.47 12.303z" fill="#E9E7DC"/><path d="M94.482 6.722l.566-.107c.136-.027.505-.03.646-.04.233-.02.405-.048.61-.08.196-.031.432 0 .627-.03.405-.063.817-.067 1.239-.097.432-.031 1.053.077 1.638.055.366-.014.031-.098.892-.032.245.018.455-.018.659-.03l1.33.007c.17.02.43.032.639.02.417-.024.861-.024 1.311-.03.879-.012 1.817.03 2.657-.028.431-.03.92.023 1.321-.023l3.985-.036c.437 0 .851-.027 1.311-.027l1.194-.01c.093-.02.091.053.104-.067-.623 0-.609-.215-1.028-.177-.322.03-.841-.007-1.153.04-.412.062-1.878.02-2.399.02-.827 0-1.452.029-2.326.029h-6.026c-.122 0-.195-.019-.27-.02l-.833.02c-.795 0-1.627.024-2.417 0-.598-.019-1.726-.068-2.288.006-.168.023-.367.01-.567.027-.095.01-.3.044-.453.089-.151.045-.314.068-.444.154-.145.095.01.052-.201.095-.442.093-.96.093-1.416.104l-.555.043c-.607.098-.63.32-.813.41-.42.204-1.194-.034-1.652.467-.086.095-.029.086-.17.129-.217.066-.48.075-.636.258-.27.313.088.168-.557.367-.8.245-.401.41-.655.54-.059.029-.181.036-.247.051a1.256 1.256 0 00-.66.415c-.038.052-.017.039-.076.073-.036.022-.152.07-.209.09-.16.057-.285.064-.38.215-.102.163-.036.279-.224.372-.177.086-.252.09-.333.292-.245.596-.279.276-.542.65l-.036.054-.013.016-.082.098c-.1.129-.224.208-.295.303-.077.105-.02.089-.135.193-.007.007-.028.02-.032.027l-.113.125c-.173.256.006.136-.329.419-.095.081-.156.129-.192.256-.03.097-.032.142-.05.249-.028.159-.082.349-.082.546-.204-.048-.383-.159-.596-.209 0-.244-.079-.604-.292-.722a.585.585 0 00-.274-.084c-.115-.496-.104-.482-.596-.596-.013-.648-.358-.428-.539-.596-.201-.185.14-.396-.596-.568 0-.523-.188-.42-.43-.734-.05-.066-.072-.077-.125-.145-.163-.213-.376-.195-.638-.256 0-.582-.422-.421-.8-.573-.19-.077-.286-.329-.45-.412-.16-.082-.284-.06-.424-.114-.288-.113.115-.315-.596-.537a1.63 1.63 0 00-.505-.063c-.102-.152-.152-.301-.327-.39-.321-.163-.797-.063-1.168-.203-.15-.057-.148-.306-.318-.4-.117-.063-1.091-.142-1.29-.142-.112 0-.248.007-.356-.002-.313-.03-.213-.168-.438-.279-.108-.054-.133-.075-.23-.127-.388-.213-.757-.06-1.192-.12-.231-.031-.474.005-.71-.009-.135-.007-.162-.031-.325-.031l-2.479-.03c-.197 0-.324-.045-.491-.052-.163-.007-.07-.032-.104.052h-.329c-.002-.122 0-.106-.272-.158-.199-.039-.36-.023-.548-.005l-.15.011c-.16.039-.25-.013-.416-.009-.143.005-.231-.05-.358.027-.172.105-.13.136-.403.136L62.99 5.9c-.208 0-.29.031-.505.031-.338 0-1.117-.013-1.38.172-.163.114-.124.175-.201.336-.227 0-.428.04-.628.059-.484.04-1.583-.154-1.64.51-.36 0-1.241.14-1.45.28-.1.066-.135.156-.18.238-.064.113-.168.093-.322.127-.127.027-.209.059-.277.14-.1.116-.34.338-.484.38-.111.035-.234.055-.35.1-.353.136-.23.415-.382.483-.046.02-.279.036-.36.059-.2.054-.444.17-.535.36l-.081.127s-.146.063-.17.07c-.313.1-.372.05-.485.38-.066.191-.02.141-.215.202-.274.086-.26.293-.363.503-.063.132-.16.09-.285.163-.265.159-.145.401-.358.508-.116.056-.172.03-.292.127-.134.11-.093.14-.161.287-.177.388-.424-.197-.67 1.06-.04.193-.071.127-.277.17a1.24 1.24 0 00-.33.118c-.01-.109-.028-.093-.048-.192-.066-.318-.005-.755-.35-.934-.174-.09-.199-.065-.267-.27-.163-.486-.457-.303-.532-.511-.052-.15-.025-.24-.154-.354-.125-.108-.25-.092-.38-.156-.084-.356-.132-.614-.454-.829-.19-.125-.092-.131-.444-.33-.262-.15-.23-.377-.661-.474-.594-.134-.245-.435-1.038-.603-.455-.097-.174-.06-.385-.36-.129-.181-.407-.181-.582-.283-.258-.152-.072-.326-.87-.442-.19-.027-.63-.043-.781-.113-.21-.097-.184-.483-1.287-.473-.308.002-.881-.014-1.121-.19-.492-.365-1.07-.275-1.432-.33l-8.168-.183-1.627-.133c-.317 0-.568-.01-.863-.032a42.238 42.238 0 00-3.343-.118c-.585 0-1.12-.03-1.731-.03-.317 0-.55-.031-.836-.029h-.897c-.179 0-.218-.03-.385-.031h-.449c-.133 0-.315.009-.444-.003-.21-.02-.174-.06-.3-.147.029-.131.076-.125.087-.27-.133 0-.192.003-.29-.029-.024.224-.083.31.066.492.095.115.233.179.43.183l3.491.12c.331.01.84.011 1.14.05.21.027.333.036.564.038.197 0 .385.044.564.057l1.164.034c.39 0 .737.086 1.133.088 1.567.007 3.142.093 4.714.087.804-.003 1.61.006 2.417.009.61 0 1.135-.005 1.73.05.195.018.429.004.628.006.55.005 1.115.043 1.656.13.163.024.276.099.428.16.406.161 1.085.18 1.572.229.095.009.292.02.376.059.107.05.428.17.494.244l.016.025c.082.098.247.127.37.161.41.118.779.123.994.229.306.152.217.21.788.406.426.144.353.353.69.532.164.086.241.086.388.208.152.125.134.15.333.265.331.19.487.136.768.424.168.172.34.22.508.387.07.07.081.1.136.163.317.367.258.17.54.682.116.21.318.277.429.467.045.077.07.109.125.177.217.262.147.068.58.643.178.238.362.444.457.734.089.267.181.738.372.856.131-.043.315-.2.468-.28.334-.178.358-.655.562-.932.114-.152.247-.238.374-.371.326-.34.85-.814 1.099-1.14.222-.292.478-.523.718-.804.251-.294.63-.34.917-.573.075-.061.111-.113.184-.174.088-.075.145-.08.256-.132.358-.17.541-.433.906-.584.267-.111.29-.068.462-.286.251-.315.632-.36.98-.539.578-.299.522-.215 1.106-.385.218-.063.35-.131.53-.215.732-.338 1.443-.231 1.858-.38.242-.087.512-.128.756-.225 1.199-.478 6.982-.308 8.361-.285.463.006.936.072 1.403.088.437.016.842.136 1.261.256.646.186 1.47.24 1.874.365.229.07.322.136.523.222.38.16.788.185 1.169.324.218.079.283.19.467.278.385.186.713.168 1.028.492.12.122.32.19.478.27.485.244.444.396.913.58.247.097.258.174.433.312.05.04.06.036.115.066.283.145.569.31.78.53.22.228.398.28.566.566.158.267.362.322.546.589.104.152.258.24.387.358.131.12.204.278.344.4.188.164.23.116.383.363.213.34.467.503.605.886.082.222.122.344.242.534l.621.048c.3-.326.218-.804.503-1.092.197-.2.288-.496.435-.639.106-.101.224-.136.317-.22.09-.08.113-.215.206-.33.123-.154.177-.118.302-.233.117-.111.215-.383.439-.605.476-.47.403-.696 1.114-1.03.125-.06.24-.103.333-.205.127-.14.132-.133.308-.229.116-.06.225-.108.336-.17.11-.058.206-.149.306-.23.206-.17.498-.225.697-.377.322-.246.123-.29.648-.425.956-.247.453-.37 1.56-.555.914-.154.782-.263 1.233-.379a9.37 9.37 0 011.416-.197M7.957 56.174c-.098-.251-.046-.174-.256-.376a.56.56 0 01-.159-.224c-.043-.102-.07-.152-.111-.247-.048-.108-.07-.174-.116-.272 0-.002-.038-.081-.038-.084l-.152-.12c-.17-.145-.17-.332-.249-.523-.057-.136-.16-.417-.265-.514-.08-.075-.13-.08-.206-.181l-.075-.104c-.072-.12-.1-.268-.217-.354-.039-.03-.077-.043-.13-.077-.364-.233-.22-.292-.4-.523-.14-.18-.236-.181-.338-.433l-.251-.5c-.168.013-.474.183-.574.283-.176.177-.015.512.039.664.082.23.16.237.25.589.047.188.124.335.208.507.131.272.246.172.371.553l.09.26c.055.138.041.184.112.317.063.125.104.13.176.243.558.85.11 3.185.288 4.245.04.242.084.403.265.575.288.272.37.677.74.902.064.038.08.038.132.077l.356.24c.242.186.12.204.539.301.75.174.614.467 1.13.541l.32.064s.013.007.022.009c.148.052.281.09.404.19.183.152.056.168.346.283.229.091.295.234.41.417.064.098.012.05.123.095.5.211.326.333.527.51.184.16.286.077.417.383.2.457.061.15.39.45.131.12.075.094.143.272.088.238.332.19.48.358.14.159.106.367.349.463.16.063.147.029.256.156.065.077.034.038.077.127.083.18.217.167.391.244a.51.51 0 01.268.32c.043.122 0 .084.095.124.131.06 1.071.093 1.146.019.068-.157.04-.485.027-.691-.183-.14-.292-.123-.4-.37-.18-.403-.209-.188-.354-.333-.109-.106-.125-.074-.186-.228-.208-.53-.392-.32-.566-.571-.2-.29-.05-.175-.412-.37-.211-.113-.175-.287-.308-.432-.136-.147-.308-.09-.463-.313-.074-.109-.043-.17-.145-.247-.07-.052-.167-.068-.249-.11-.249-.128-.183-.264-.312-.456-.107-.159-.297-.106-.417-.358-.136-.285-.109-.256-.365-.419-.204-.13-.19-.238-.324-.417-.138-.188-.251-.186-.373-.398-.238-.413-.19-.6-.392-.748-.392-.288-.302-.759-.478-1.04-.102-.163-.23-.2-.315-.457-.166-.499-.245-.487-.526-.823l-.013-.016a1.124 1.124 0 01-.182-.35c-.124-.384-.324-.375-.525-.995l-.04-.111-.005.004zm116.308 9.111c.068-.088.075-.192.138-.276.052-.068.177-.109.268-.15.469-.206.272-.178.419-.419.088-.145.387-.056.562-.478.117-.28.401-.194.512-.505.047-.133.086-.15.183-.23.292-.24.193.01.374-.438a.384.384 0 01.183-.231c.342-.231.215-.102.354-.483.299-.826.317-.512.466-.754 0 0 .288-.763.372-.881.079-.113.142-.104.204-.213.131-.231.117-.555.464-.967.034-.041.073-.068.102-.107.147-.197.249-.942.41-1.23.066-.115.097-.113.1-.299 0-.115-.012-.276.025-.36a1.271 1.271 0 00-.748-.22c-.646.02-.387.05-.815.148-.139.031-.109-.016-.191.081-.12.138-.118.174-.428.29-.365.134-.396.347-.532.45-.143.11-.145.082-.265.243l-.202.306c-.17.213-.165.097-.281.227-.118.13-.099.298-.208.539-.161.36-.166 0-.569.888-.025.052-.045.104-.084.154-.083.11-.222.145-.269.238-.027.052-.064.278-.163.432l-.247.163c-.143.061-.184.29-.458.53-.276.245-.335.395-.46.524-.115.117-.201.124-.371.376-.143.21.011.06-.213.262-.102.091-.077.139-.247.259-.224.158-.102.147-.211.267-.061.068-.054.02-.117.122l-.159.259-.014.015c-.079.082-.097.028-.19.107-.124.109-.113.371-.238.51-.174.197-.258.077-.319.251-.03.082-.048.179-.109.276a.395.395 0 01-.263.177c-.226.052-.203-.009-.242.22-.07.435-.319.491-.489.666-.118.12-.184.756-.184.928.039.03-.011 0 .059.041a.755.755 0 00.041.023c.12.054.156.009.353.007.73-.005.537-.111.811-.301.503-.347.501-.114.786-.32.114-.084.091-.258.585-.49.108-.05.258-.11.419-.12.032-.4.648-.493 1.101-.516" fill="#E9E7DC"/><path d="M83.786 6.26c0 .253.022.605.068.827.063.314.188.353.5.425.14.608.182.503.585.608.165.043.134.088.245.172l.382.213c.258.147 2.069.358 2.127-.37.256-.006.77-.09.922-.271.111-.132.096-.182.161-.315.152-.313.385-.18.51-.714.115-.491.086-1.556.045-2.1a.502.502 0 00-.224-.403c-.224-.14-.238.011-.324-.301-.057-.204-.106-.288-.304-.354-.394-.129-.22-.081-.346-.28-.125-.193-.71-.322-.95-.336-.242-.013-.38.03-.627.03s-.453-.057-.707-.023c-.19.025-.469.032-.647.097-.157.06-.209.116-.263.274-.082.238.034.07-.356.211-.342.125-.011.145-.58.555-.124.09-.19.347-.192.553-.005.525-.03.963-.03 1.493m.005.009l1.887 1.783zM17.305 63.246c-.081.091-.145.023-.35.028-.064.108-.046.115-.164.176.005.168.084.159.172.265.111.132.064.22.127.352h.27c0-.284-.107-.306.15-.478.12.031.219.136.337.199.16.086.256.068.371.195.401.432-.088.09.61.525.287.18.145.204.65.453.21.105.342.175.487.35.047.056.095.097.147.151.492.494.242.066.589.784.131.272.147.278.349.514.174.202.22.487.432.7.213.213.309.4.415.72.052.159.084.23.179.358.299.401.301.838.543 1.156.254.33.22.34.397.706a.81.81 0 00.251.315c.12.097.145.202.216.353.35.757.337.456.67 1.002.138.226.385.276.591.543.17.222.397.347.55.585.11.168.11.17.282.285.355.238.084.399.711.66.632.26.168.264 1.4.568.254.064.356.174.541.292.329.209.743.202 1.144.258.657.096.979.379 1.797.472l1.554.117c.179.005.315.03.537.03.598 0 1.09-.061 1.64-.059l1.601-.097c.696-.102 1.03-.365 1.801-.438.51-.047 1.06-.052 1.577-.124.176-.025.31-.06.475-.09.152-.03.297-.055.449-.09.611-.133.587-.144 1.225-.176.132-.007.125-.027.268-.031.639-.019 1.524.018 2.115.124.123.023.286.104.4.138.767.236 1.786.177 2.545.288.324.047.632.032.897.238.428.333 1.7.299 2.365.41.442.075-.104.353 1.192.51.242.029.575.045.75.203.586.535 1.882.204 2.392.592.575.437 1.622.31 2.351.453.397.079.57.45 1.79.446.396 0 .7.018 1.076.027.514.014 1.062.077 1.58.12.193.016.232.09.436.134.276.056.715.11 1.044.063.25-.036.44-.04.662-.142.274-.13.933-.143 1.288-.143.476 0 2.232-.06 2.612-.19.225-.078.206-.22.38-.306.12-.06.26-.064.38-.07.48-.025 1.068-.053 1.494-.204.374-.134.104-.297.766-.37.15-.016.31-.05.482-.054.297-.007.67-.045.888-.247.184-.17.046-.21.814-.29.15-.016.362-.047.482-.084a.587.587 0 00.33-.238c.098-.149.098-.213.352-.215.206-.002.297-.022.51-.027.136-.002.127-.02.24-.03.095-.006.201.005.296 0 .13-.006.11-.022.238-.029.102-.004.188.007.29-.009.14-.018.372-.009.53-.038a3.77 3.77 0 00.872-.263c.193-.09.23-.093.444-.123.41-.056 1.208-.052 1.59-.013.273.027.22.066.402.165.455.254.987.181 1.431.24.354.046.7.05 1.065.068.15.007.324.043.478.06.274.027.227.05.351.215.204.267.553.23.859.274.233.034.74.058.915.217.405.371 1.3.31 1.866.371.175.019.326.025.542.025.2 0 .344.044.484.084.22.064.576.438 1.813.426.22-.002.31.03.505.032.537 0 1.08.02 1.604.097.738.107.69.356 1.916.35.163 0 .378-.012.535 0 .6.049 1.295-.042 1.635.006.163.023.297.002.499-.025.299-.04.709 0 .98-.152.148-.081.211-.142.385-.183.673-.159 1.826-.032 2.327-.476.093-.084.057-.047.17-.097.075-.034.118-.064.206-.093.292-.1.68-.09.981-.152.512-.104.389-.168.761-.342.138-.064.283-.086.435-.132.145-.043.292-.063.464-.104.449-.102.578-.3 1.237-.432 1.473-.293 4.259.17 5.326-.225.179-.065.199-.136.324-.242.231-.197.484-.2.677-.455.247-.329.476-.3.603-.77.058-.213.183-.406.258-.608l.199-.604c.036-.089.048-.125.084-.213.118-.286.356-.365.496-.64.082-.155.116-.257.24-.384a.267.267 0 00.016-.016.1.1 0 01.016-.014c.032-.031.041-.031.077-.072.247-.27.267-.66.55-.881.096-.075.188-.175.252-.286.281-.478.337-.213.682-.72.117-.175.296-.24.416-.417.087-.127.118-.236.218-.349.127-.142.168-.1.276-.292.073-.13.123-.236.216-.351.493-.6.62-.553.867-.804.025-.025.034-.039.057-.064l.072-.075c.055-.05.104-.104.157-.142.131-.098.208-.102.323-.243.096-.113.132-.217.238-.328l.213-.206c.066-.06.016 0 .075-.075.188-.227.297-.532.521-.732l.016-.013c.201-.186.249-.374.401-.555.088-.107.206-.159.288-.279.086-.124.12-.242.201-.367a2.03 2.03 0 01.113-.156c.077-.097.084-.064.157-.143.059-.063.149-.276.19-.376.059-.14.097-.29.161-.405.206-.37.342-.007.412-.691.036-.345.025-.666.134-1 .05-.151.075-.294.176-.389.388-.365 0-.38.528-1.171.181 0 .29.005.329.15.219-.148.192-.41.58-.417v-.399c-.043-.03-.059-.039-.109-.075-.091-.06-.03.027-.098-.088-.12.009-.176.014-.249.09-.149.16-.124.313-.355.472-.206.14-.263.285-.388.487-.004.009-.018.022-.034.059-.072.16-.115.373-.213.53-.326.516-.29.77-.392 1.316a2.821 2.821 0 01-.12.437l-.034.084-.009.02c-.043.09 0 .025-.054.095-.027.034-.048.048-.072.075-.288.32-.211.689-.657 1.162-.207.22-.197.553-.433.698-.258.159-.288.471-.496.639-.073.056-.095.047-.177.124-.199.188-.297.512-.6.8-.335.317-.288.5-.437.575a2.358 2.358 0 00-.573.413c-.227.23-.567.42-.757.675l-.111.158a2.472 2.472 0 00-.102.168c-.038.075-.052.145-.088.21-.061.107-.039.053-.145.12-.315.198-.234.517-.471.662-.127.077-.241.113-.311.26-.088.182-.054.202-.222.31-.161.105-.206.06-.342.227-.104.13-.077.22-.217.35-.08.072-.102.051-.184.112-.233.177-.292.61-.534.868-.139.15-.17.107-.247.324-.057.156-.066.29-.177.385-.295.254-.231-.009-.494.641-.163.401-.045.138-.201.365-.2.292-.25 1.14-.422 1.278-.12.095-.22.088-.344.222-.1.108-.109.244-.231.333-.152.11-.401.076-.587.251l-.102.072c-.036.019-.02.005-.081.041-.105.064-.059.066-.182.116-.684.274-2.673.075-3.468.075-.552 0-2.102.07-2.53.31-.138.077-.19.156-.347.22-.242.1-.591.158-.869.233-.345.093-.467.242-.796.337-.672.195-1.128.145-1.744.526-.206.127-.623.168-.924.206-.496.063-1.017.059-1.482.22-.344.12-1.125.183-1.513.183-.727 0-1.506.05-2.227-.04l-.976-.15c-.133-.032-.367-.038-.514-.057l-.498-.06c-.367-.048-.714-.019-1.083-.06-.56-.06-.95-.065-1.486-.21l-1.407-.295c-.308-.047-.682-.036-1.012-.093-.327-.056-.657-.097-.932-.199-.29-.106-.593-.159-.908-.231-.335-.077-.603-.125-.91-.218a1.544 1.544 0 01-.218-.079c-.2-.095-.324-.2-.564-.272-.229-.068-.74-.1-1.01-.126-.954-.093-1.801-.438-2.957-.442-.772-.005-1.59-.034-2.254.163a8.52 8.52 0 01-1.8.315c-1.215.095-.857.398-1.688.58-.324.072-.632.102-.933.201-.188.064-.22.118-.385.184-.428.167-.911.2-1.348.32-.34.092-.67.269-.832.3-.296.06-.607.132-.953.18-.326.045-.578.158-.886.249a8.542 8.542 0 01-.933.199c-.31.05-.707.054-1.026.106-.263.043-.78.048-1.067.055-.718.02-1.437.158-2.155.077-.63-.07-1.481-.107-2.143-.136-.19-.01-.3-.048-.507-.052a8.925 8.925 0 01-.535-.032 3.74 3.74 0 01-.942-.188c-.74-.254-2.338-.315-2.788-.58-.2-.118-.628-.2-.902-.236-.736-.1-1.176-.135-1.828-.434-.276-.127-.578-.157-.92-.218-1.2-.21-.421-.367-1.688-.58-.33-.056-.67-.08-.987-.147l-.874-.258c-.574-.2-1.323-.193-1.978-.29-.159-.023-.304-.077-.462-.102-.172-.027-.324-.061-.478-.093-1.112-.218-2.012-.256-3.158-.247-2.13.016-1.914.294-2.983.392-.537.05-1.572.154-2.028.242-.2.039-.505.1-.677.19-.27.139-.91.141-1.23.17-.714.066-1.484.057-2.211.055-.344 0-.725-.052-1.074-.064a6.893 6.893 0 01-.516-.043c-.378-.045-.496-.01-.816-.197-.15-.086-.349-.127-.527-.16-.177-.034-.31-.075-.472-.096-.174-.022-.33-.031-.514-.054-1.028-.138-.516-.313-1.678-.589-.612-.145-.363-.206-.764-.367-.802-.324-.625-.082-.874-.553-.143-.274-.354-.265-.422-.385-.047-.084-.09-.213-.156-.292l-.226-.193c-.275-.154-.189-.296-.388-.446-.113-.084-.287-.088-.364-.201l-.195-.372c-.077-.113-.17-.195-.27-.297-.254-.265-.242-.688-.548-.883-.229-.147-.188-.279-.292-.54-.055-.13-.11-.276-.193-.375-.115-.138-.179-.107-.263-.304-.147-.349-.12-.725-.421-1.012-.242-.232-.236-.684-.476-.925-.136-.136-.147-.09-.276-.29-.088-.138-.098-.249-.175-.392-.104-.192-.178-.165-.283-.285-.045-.052-.133-.306-.172-.392-.208-.487-.213-.335-.512-.625-.394-.383-.056-.242-.813-.62-.378-.191-.2-.2-.476-.36-.15-.09-.265-.071-.387-.18-.104-.093-.15-.202-.25-.317-.16-.186-.398-.21-.656-.476-.1-.102-.258-.108-.383-.163m16.896-43.737c-.136 0-.213.009-.265.097-.154.27-.12 1.02-.122 1.31 0 .452-.027.987 0 1.43.007.121.038.191.065.29.145.515-.108.39.619.436 1.058.066.722.023 1.085-.297.143-.124.283-.16.315-.4.077-.563.022-1.519.009-2.087-.007-.302-.086-.333-.295-.428a.815.815 0 01-.362-.317l-1.051-.034h.002zM80.235 6.997c.046.107.095.107.197.145.417.161.258.154.399.254.127.088.072-.023.356.152a.584.584 0 00.53.011l.07-.05c.124-.077.095-.002.258-.1.145-.085.209-.17.379-.244.271-.12.235-.043.305-.365.046-.204.111-.315.052-.514-.176-.603.048-.351-.396-.6-.274-.154-.252-.23-.313-.336-.079-.135-.541-.262-.718-.226-.573.118-.478.197-.636.358-.05.052-.095.11-.143.156-.177.161-.294.023-.365.301-.02.077-.113.472-.104.526l.13.53v.002zM52.213 4.842c.226-.053.299-.032.582-.028.553.01.616.485.759.714l.106.274c.027.152-.124.251-.192.326l-.028.034c-.24.324-.1.462-.631.616-.517.15-1.024.218-1.561.039-.451-.152-.388-.503-.379-.854a.607.607 0 01.197-.415c.125-.122.18-.02.334-.294.22-.392.536-.344.813-.41" fill="#E9E7DC"/><path d="M79.761 6.11c-.491.26-.13.532-.052.62.139.156.03.455.15.684.075.138.308.174.469.186.02.258.192.38.432.432.272.06 1.11.046 1.446.046.14 0 .215-.034.328-.06.034-.142.06-.269.06-.448.32-.074.47-.136.538-.473.06-.286 0-.152.168-.34.217-.25.256-.444-.018-.652-.154-.118-.132-.107-.157-.351-.04-.422-.233-.365-.593-.449 0-.394-.233-.537-.628-.537-.43 0-1.227-.084-1.44.17a.547.547 0 00-.095.204c-.039.15.006.14-.145.183-.31.086-.467.139-.467.786M81.22 5c.279-.061.413-.025.662.032.292.066.258.16.421.326.403.41.496.113.648.813.063.297.027.392-.025.66-.102.527-.227.249-.711.752-.202.208-.15.163-.503.213a2.11 2.11 0 01-.689-.028c-.26-.045-.22-.133-.45-.294-.472-.329-.492-.172-.612-.852-.041-.224.004-.423.047-.65.075-.38.26-.263.698-.766.168-.192.238-.147.512-.208L81.22 5zm2 3.425c-.138 0-.22.089-.353.125-.523.147-.299.066-.45.494a.613.613 0 00-.037.4c.107.472.048.467.354.585.317.122.328.165.731.125.218-.023.254.043.394-.093.333-.32.168-.279.342-.555.073-.113.17-.15.12-.313-.031-.102-.147-.195-.192-.292-.027-.059-.04-.116-.068-.17a.679.679 0 00-.374-.292l-.471-.014h.005z" fill="#E9E7DC"/><path d="M82.683 7.84c-.124.538-.056.216-.428.379-.274.122-.138.4-.278.528-.06.052-.12.034-.216.172a.852.852 0 00-.124.292c-.088.417.346.743.396.83.034.056.01.022.037.083.17.39.5.109.604.41.082.236.177.313.447.356.271.043.693.115.906-.184.158-.222.043-.301.382-.421.363-.13.358-.39.395-.83.022-.269 0-.418-.05-.7-.123-.7-.354-.294-.591-.602-.062-.079-.082-.35-.392-.41-.082-.016-.238.012-.372.012-.238 0-.562.015-.716.088m.465.222s-.01-.025.129-.032l.181.002c.408 0 .222.007.478.193.483.349.938.82.637 1.506-.127.288-.451.49-.684.655-.268.188 0 .134-.429.218-.052.009-.24.05-.283.038-.147-.036-.2-.21-.376-.299-.24-.12-.466-.145-.598-.41-.081-.165-.093-.333-.183-.473-.148-.231 0-.27.072-.453.17-.44.104-.546.6-.734.417-.157.17-.07.456-.209v-.002z" fill="#E9E7DC" fill-opacity=".812"/><path d="M36.067 21.89c.056-.35.072-1.533-.08-1.862-.163-.355-.19-.265-.362-.414-.113-.098-.063-.096-.222-.161-.222-.09-1.264-.107-1.468-.018-.299.129-.236.16-.285.491-.039.256-.034.456-.034.74 0 .916-.123 1.446.1 2.228.108.387.856.283 1.302.292.297.007.43-.057.58-.209.55-.561.364-.425.469-1.087zm-.804-2.358a.82.82 0 00.362.317c.208.095.288.127.294.428.012.569.066 1.525-.009 2.087-.031.24-.174.274-.314.4-.365.322-.03.365-1.086.297-.727-.045-.473.08-.618-.435-.027-.1-.059-.167-.066-.29-.027-.444-.002-.978 0-1.431 0-.29-.031-1.04.123-1.31.05-.088.129-.097.265-.097l1.05.034h-.002zm7.294 57.062c-.285.15-.108.054-.283.215-.07.066-.084.039-.18.084-.103.047-.173.134-.322.215-.08.041-.123.039-.193.075-.313.17-.378 1.5-.315 1.812.032.154.066.308.088.446.032.182.08.275.098.44.043.392.26.177.507.396l.08.098c.052.06.09.072.151.118.066.047.082.086.139.129.265.21 1.497.228 1.905.117.267-.072.167.007.326-.188.188-.228.435-.176.61-.525l.056-.154c.201-.428.367.025.369-.983 0-.29 0-.773-.059-1.031-.059-.252-.206-.03-.4-.401-.203-.385.04-.306-.393-.424a1.111 1.111 0 01-.197-.067l-.301-.234c-.18-.145-.206-.186-.634-.186l-1.054.046.002.002z" fill="#E9E7DC"/><path d="M40.955 77.28c-.512.12-.508.718-.508 1.312 0 .408.02 1.01.204 1.228.175.208.281-.01.342.374.032.197.1.357.308.407.197.048.172-.045.23.13.03.101.04.153.117.24.183.201.568.172.842.23.27.057.182.372.703.372.321 0 .77.043 1.008-.156.192-.161.038-.22.423-.231.888-.028.716-.308.795-.517.11-.285.524.061.603-.709.034-.33.005-2.306-.03-2.557a.655.655 0 00-.425-.56c-.163-.066-.05-.036-.18-.147-.36-.313.076-.068-.54-.444-.084-.05-.139-.061-.245-.084l-1.26-.082c-.047-.07-.059-.092-.12-.149-.129.095.027.172-.686.208-.59.032-.825-.029-1.02.324-.172.318-.545.118-.561.811zm1.957-.972c.349-.063.788-.018 1.142.032.63.089.527.26.824.424.154.086.263.113.37.251l.038.052c.104.145.063.195.22.322.34.279.278.365.335.904.043.4.011.766-.027 1.164-.05.537-.655 1.153-1.085 1.418-.13.08-.814.252-.94.258-.698.044-.556-.004-1.124-.113-.437-.086-.632-.059-.868-.369-.292-.385-.337-.059-.604-.66-.068-.153-.118-.282-.204-.416-.26-.412-.286-1.164-.139-1.597.05-.147.125-.297.195-.433.395-.774.007-.27.725-.847.247-.2.163-.244.587-.328.172-.034.383-.028.557-.06l-.002-.002z" fill="#FDFDFD"/><path d="M37.486 79.457c0 .127.062.057.247.238.308.301.043.403.492.473.423.066.396.068.86-.007.309-.05.18-.194.397-.566.102-.172.025-.188.023-.405 0-.073.004-.172-.003-.243-.015-.131-.022-.088-.072-.174-.061-.1-.068-.247-.1-.37-.052-.194-.108-.153-.312-.178-.132-.016-.363-.148-.868-.08-.378.05-.324.585-.66.768v.544h-.004z" fill="#E9E7DC"/><path d="M40.266 79.399c0-1.174-.26-1.051-.496-1.355-.254-.328-.277-.133-.476-.33-.385-.381-.53-.345-1.119-.345-.433 0-.496.403-.686.505-.089.048-.111.027-.202.098a.478.478 0 00-.138.16c-.064.116-.09.322-.118.48-.066.406-.063 1.188.13 1.56.08.158.146.196.316.278.186.09.23.109.435.16.467.12.603.53.981.1.073-.084.048-.077.193-.106.491-.102.262.036.702-.193.113-.059.088-.016.186-.113.18-.179.287-.555.287-.904m-3.047.095c-.063-.299.078-1.01.2-1.155.118-.143.408-.337.573-.469.106-.084.115-.059.276-.077.433-.045.3-.061.56.073.299.154.591.093.818.55.194.397.385.512.349 1.044-.012.157-.367.696-.556.81-.154.092-.346.137-.527.178-.399.09-.89.02-1.17-.186a.13.13 0 00-.017-.013l-.018-.014c-.057-.043-.048-.032-.093-.081-.064-.068-.125-.118-.175-.182-.106-.133-.127-.222-.17-.362a.755.755 0 00-.05-.116z" fill="#FDFDFD"/><path d="M40.968 82.44c.068-.116.068-.603 0-.716-.081-.138-.215-.072-.364-.247-.12-.14-.075-.362-.297-.32-.13.026-.116.057-.168.148-.186.313-.378.177-.466.46-.012.038-.05.512-.046.557.037.288.315.263.376.272.714.118.118.093.705-.057.127-.031.16-.009.256-.095" fill="#E9E7DC"/></g></g><defs><clipPath id="clip0_774_3176"><path fill="#fff" d="M0 0h139v85H0z"/></clipPath></defs></svg>