<svg width="183" height="95" fill="none" xmlns="http://www.w3.org/2000/svg"><g clip-path="url(#clip0_774_3275)"><mask id="a" style="mask-type:luminance" maskUnits="userSpaceOnUse" x="-16" y="-58" width="212" height="211"><path d="M195.223-57.66h-210.32v210.32h210.32V-57.66z" fill="#fff"/></mask><g mask="url(#a)" fill-rule="evenodd" clip-rule="evenodd" fill="#E9E7DC"><path d="M144.821 11.251c1.027-.002 2.068-.084 3.094-.096.463-.005 1.143-.042 1.583.007.23.027.5.025.745.07.361.066.284.103.526.247-.128.03-.183.074-.319.104-.546.118-1.244.13-1.837.28a2.4 2.4 0 00-.624.227c-.487.252-1.157.363-1.704.398-.227.015-.531.133-.692.163l-.351.129c-.159.02-.641.143-.977.168-.374.027-1.17.062-1.479.222-.809.423-.69 1.128-.821 1.996-.047.314-.191.527-.309.792-.154.336-.154.514-.243.865-.081.32-.121.554-.272.81a.451.451 0 01-.208-.194c-.113-.175-.108-.136-.138-.277-.102-.497-.064-3.346-.062-3.811.002-.613-.042-1.207.141-1.739.059-.17-.01-.064.077-.146l.126-.101c.111-.077.225-.047.391-.047.455.027 2.629-.067 3.353-.07m-26.733.779c.356-.212 1.096-.25 1.558-.284.505-.037.93-.017 1.432-.005.97.025.43-.02 1.4.097.22.027.45.061.641.136.066.024.217.066.215.146-.005.15-.485.35-.626.455-.079.059.002.017-.129.059l-.148.047c-.106.022-.233.01-.344.01-.447-.005-.358.057-.635.158-.287.104-.287.08-.624.124-.472.062-.878.104-1.38.14-.465.035-.888.377-1.083.446-.539.188-.799.104-1.138.346l-.378.304c-.144.092-.448.122-.648.193-.25.092-.332.285-.517.433-.245.198-.428.235-.544.408-.099.144-.799.596-.863.663-.07.077-.097.114-.176.183-.133.116-.356.146-.48.272-.24.247-.015.29-.512.557l-.061.037c-.104.074-.102.089-.134.237-.158.712-.44.87-.507.985-.094.163-.121.403-.183.603l-.161.42c-.106.188-.173.196-.242.312-.111.186-.121.715-.158.96-.065.43-.067.92-.114 1.382-.114 1.116-.292.957-.319 1.123-.188-.282-.361-1.078-.455-1.457-.042-.173-.119-.408-.211-.544-.165-.252-.064-.227-.049-.613.017-.43.116-.064.195-.94.01-.121.028-.213.045-.341.062-.44.03-1.22.307-1.57.136-.174.217-.176.304-.451.034-.104.039-.203.079-.314.321-.903.354-.213.749-1.138.112-.26.26-.153.391-.353.119-.178.131-.315.297-.443.079-.062.18-.07.252-.141.183-.183 0-.277.599-.534.237-.102.128-.154.383-.371.087-.074.151-.07.26-.129l.47-.284c.353-.396.573-.31.93-.46.175-.075.183-.018.356-.136.267-.188.193-.12.46-.255.287-.146 1.038-.114 1.38-.381.044-.035.01-.01.052-.042l.057-.04.007-.01zm-37.197.948c.114-.032.24-.042.389-.062.49-.064.556-.322.915-.46.537-.208 1.073-.106 1.625-.2.081-.015.277-.067.35-.11.063-.034.036-.019.075-.059l.111-.11c.213-.142.723-.246 1.007-.087l.329.22-.312.304c-.084.094-.014.064-.165.153-.47.28-.12.46-1.232.648-.492.084-.324.131-.618.337-.159.111-.497.203-.72.247-.579.116-.626.517-1.207.685-.287.082-.15.022-.275.23-.118.2-.368.28-.558.381-.238.129-.255.324-.512.457l-.505.208c-.262.07-.153.161-.334.361-.203.225-.452.151-.566.384-.136.277-.186.319-.473.457-.178.087-.178.275-.326.396-.148.121-.383.223-.433.287-.07.091-.077.2-.146.314-.17.284-.39.215-.48.46-.12.329-.188.361-.41.564-.248.227-.292.655-.515.92-.094.111-.173.101-.247.208-.067.094-.173.598-.21.742-.074.284-.3.336-.416.521-.106.171-.175.468-.274.67-.052.105-.106.223-.183.302-.114.112-.126.075-.208.25-.143.307-.131.757-.302 1.13-.071.159-.108.159-.193.295-.274.438-.346 1.785-.492 2.337-.047.178-.091.2-.158.336-.2.41-.111.371-.178.774-.022.139-.04.245-.062.391-.044.31-.03.591-.064.893-.047.398-.322.559-.33.567-.049-.072-.1-.1-.155-.171-.168-.223-.134-.537-.168-.794a9.886 9.886 0 01-.077-1.353c0-.693-.017-2 .082-2.646.126-.814.339-.675.44-1.383.277-1.927.445-1.375.65-2.077.072-.248.052-.52.139-.777.156-.465.25-.326.376-.53.072-.113.07-.244.31-.603.1-.153.063-.118.222-.225.086-.057.14-.153.212-.25.144-.192.134-.413.354-.551.304-.193.215-.287.329-.596.14-.378.294-.388.504-.626.203-.23.236-.4.513-.59l.207-.186.017-.018c.216-.21.206-.296.488-.452.143-.082.309-.141.445-.24.02-.015.101-.092.121-.11.166-.16.304-.284.54-.363.294-.098.202-.306.422-.497.09-.076.198-.094.304-.146.171-.081.154-.126.223-.245.062-.108.3-.217.428-.279.264-.126.65-.08.858-.25.158-.13.097-.173.41-.334l.043-.02c.03-.012.027-.012.069-.024m-39.896-1.813c.366.005.744.03 1.14.042.566.013 3.099 0 3.47.223-.02.064.03.099-.21.128-.379.047-1.47.213-1.72.292-.462.146-.318.208-.704.332l-.606.126c-.586.052-.725.28-.752.915-.062 1.46-.047 1.655-.361 3.116-.183.848-.119 1.477-.198 2.115-.089.732-.05 1.486-.101 2.223-.02.282-.03.829-.092 1.071-.096.376.074.354-.19.69-.243.307-.213.923-.267 1.138a4.87 4.87 0 00-.09.497l-.076 1.783c-.012.586.054.322-.072.876-.079-.648-.054-1.895-.042-2.57l-.034-7.687c.004-.895-.043-4.33.007-5.048.17-.138.613-.27.9-.264M20.812 9.832l2.535.118c.43.005.799.075 1.236.084.495.013.89.082 1.237.1.735.039 1.069.059 1.645.501.208.159.062.151.235.23-.193.01-.285.08-.448.094-.195.018-.314.042-.492.07l-3.957.348c-.243.04-.233.09-.406.139-.564.156-.791.14-1.38.215-.242.03-.24.032-.349.22-.104.176-.074.242-.076.46 0 .507-.104 3.386-.19 3.866-.045.245-.087 1.894-.176 2.243-.027.109-.084.129-.124.292-.022.094-.022.225-.052.341-.114.438-.156 1.004-.16 1.464 0 .26 0 .522-.006.782-.002.3-.05.47-.056.75-.02.588-.04 1.258-.188 1.834-.028.104-.023.225-.025.337-.003-.146-.104-.675-.126-.839-.075-.527-.075-1.328-.141-1.946-.052-.5-.025-4.256-.025-5.085l-.005-5.57c0-.183-.025-.497.022-.658.03-.096.178-.358.253-.395.225-.114.96-.023 1.219.005zm-1.2 14.488z"/><path d="M33.71 69.777c.135.06.308.067.417.178.284.29.542.32.717.52.11.126.156.245.272.346.131.119.258.099.423.195.302.176.107.186.52.394.826.413.455.26.888.677.326.317.33.149.558.683.04.094.139.373.188.428.114.13.196.099.31.311.084.156.094.277.19.428.141.218.15.168.302.317.264.264.255.757.52 1.009.328.314.296.724.46 1.105.09.216.16.178.286.332.091.109.153.267.21.41.117.282.07.428.32.589.333.213.32.678.598.965.109.113.21.202.294.323l.213.406c.084.121.274.126.398.22.22.163.124.32.423.487l.247.21c.075.085.119.228.17.32.075.13.303.12.46.42.273.515.08.25.956.604.437.178.165.242.833.4 1.271.302.71.492 1.833.643.2.028.37.037.561.06.176.022.32.064.515.104.192.037.413.081.576.175.349.203.475.166.89.215.176.023.4.042.564.047.383.01.796.067 1.172.07.794.002 1.635.012 2.414-.06.352-.032 1.049-.037 1.343-.185.19-.097.522-.163.74-.208.494-.096 1.627-.21 2.213-.265 1.165-.106.93-.41 3.258-.428 1.251-.01 2.233.03 3.447.27.168.032.334.072.522.102.173.027.331.086.505.11.714.107 1.535.1 2.159.317l.954.282c.344.075.718.1 1.079.161 1.382.233.531.403 1.842.633.374.067.703.1 1.004.238.715.326 1.195.366 1.996.475.3.04.767.13.985.257.492.29 2.235.356 3.044.633.337.116.665.175 1.029.205.2.015.393.03.584.035.225.007.346.05.554.057.72.032 1.652.069 2.34.148.783.09 1.567-.062 2.351-.084.314-.008.876-.015 1.165-.06.352-.056.782-.059 1.12-.116a9.136 9.136 0 001.02-.217c.336-.097.61-.223.967-.272.378-.052.717-.131 1.04-.196.174-.034.538-.227.909-.329.48-.13 1.004-.165 1.471-.348.183-.072.215-.132.42-.2.33-.112.663-.144 1.02-.22.907-.201.516-.53 1.842-.634.685-.054 1.323-.15 1.966-.344.722-.215 1.618-.183 2.461-.178 1.261.005 2.186.381 3.228.482.294.03.853.065 1.103.139.262.077.398.19.616.297.069.034.16.064.237.086.339.102.628.154.994.238.342.079.673.133.992.252.299.111.66.156 1.017.218.361.061.766.05 1.105.101l1.536.322c.586.158 1.011.163 1.622.23.401.044.779.012 1.183.064l.544.067c.16.02.418.027.561.061l1.066.164c.787.099 1.637.047 2.431.044.423 0 1.276-.072 1.652-.2.507-.176 1.076-.173 1.618-.24.329-.042.784-.087 1.009-.225.673-.418 1.17-.361 1.904-.574.359-.104.495-.27.868-.368.302-.082.685-.146.95-.255.171-.07.228-.156.378-.24.468-.262 2.16-.339 2.763-.339.868 0 3.04.218 3.787-.081.136-.055.084-.057.197-.127.065-.04.05-.024.089-.044l.112-.08c.203-.19.475-.153.64-.274.134-.096.144-.245.253-.363.136-.149.247-.139.376-.243.188-.15.242-1.076.46-1.395.168-.247.042.04.22-.398.287-.71.22-.423.539-.7.121-.104.133-.25.193-.42.084-.238.116-.19.269-.354.265-.284.329-.754.584-.947.089-.07.114-.045.2-.124.154-.14.126-.24.238-.38.148-.184.195-.137.373-.248.186-.119.149-.14.243-.339.076-.16.2-.2.338-.284.26-.159.171-.507.515-.722.116-.072.094-.013.158-.132.04-.071.055-.148.097-.23a1.73 1.73 0 01.111-.182l.121-.174c.205-.277.576-.487.826-.737.198-.2.448-.36.626-.45.163-.081.111-.28.477-.628.334-.317.44-.668.656-.873.089-.084.113-.074.193-.136.227-.18.259-.524.541-.698.257-.158.247-.521.473-.761.487-.517.4-.92.717-1.269.027-.032.049-.044.079-.082.059-.076.012-.005.059-.103.003-.008.008-.015.01-.023l.037-.091c.047-.124.104-.33.131-.478.109-.596.072-.873.428-1.436.107-.169.154-.401.233-.58.017-.039.032-.056.037-.064.133-.22.195-.378.423-.531.254-.173.227-.342.388-.515.079-.084.141-.089.272-.099.064 0 .027-.02.05.028l-.043-.134c.156-.153.164-.097.275-.218l.03-.034a1.36 1.36 0 01.064-.067c.27-.28.319-.302.7-.507.213-.116.166-.275.551-.425.742-.29.562-.436 1.222-.7.44-.176.317-.433.713-.72.296-.215.378-.784.633-1.059.356-.383.408-1.11.556-1.622.045-.156.092-.23.139-.351.044-.119.064-.255.111-.381.111-.307.067-.65.423-1.014.41-.42.381-.638.584-.849.091-.096.175-.136.262-.224.178-.186.19-.344.462-.488.463-.242.28-.173.567-.41.192-.159.383-.258.571-.406.2-.158.319-.321.519-.458.282-.192.297-.143.492-.447.164-.255.295-.332.451-.53.145-.182.185-.417.296-.645.136-.277.305-.287.446-.532.136-.235.187-.373.375-.571.451-.47.265-.561.547-.918.089-.11.168-.13.26-.23.151-.16.232-.413.378-.598.173-.218.265-.225.374-.566.158-.497.081-1.242.081-1.833v-1.922c.013-2.572 0-5.147.003-7.719V33.13c-.005-.633-.047-1.286.207-1.719.062-.104.156-.185.213-.274.191-.3.208-.81.391-1.076.311-.455.24-.084.504-.962.085-.28.282-.46.354-.591.26-.485.146-.747.421-1.014.249-.245.252-.196.41-.564.111-.265.183-.401.339-.609.284-.38.265-1.083.556-1.4.216-.232.228-.294.339-.633.384-1.15.433-.393.554-1.363.032-.26.04-.638.04-.9l.005-13.516c0-.613.032-1.323 0-1.922-.018-.299-.223-.452-.512-.452-1.558 0-2.976.106-4.499.324-.289.042-.554.074-.856.121l-2.658.21c-.582.01-1.41.097-1.858.1-.618.002-1.229.086-1.823.096-.828.012-.991.091-1.825.096l-1.729.193c-.284.03-.667.017-.942.037-.863.062-1.917.131-2.767.134-.362 0-2.568.05-2.778.11-.428.13-2.238.122-2.758.125l-5.732.042c-1.094 0-1.613.13-2.77.096-.171-.005-.25-.035-.456-.035-.195 0-.257.03-.422.035-.3.012-.691-.03-.972.008-.287.037-.5.091-.866.037-.309-.045-.651-.013-.967-.013-.421-.002-.349-.094-.861.018-.277.059-.638-.023-.93-.02-.309 0-.44.067-.91.067-.732 0-.415-.042-.883-.092-.388-.04-1.397.08-1.82.092-.683.02-1.145.091-1.823.101-.324.005-.591.057-.895.052-.339.007-1.2.126-1.546.215-.492.126-.349.245-1.345.413-1.21.203-.661.336-1.704.606-.574.148-.357.195-.708.465-.217.166-.536.225-.762.41-.108.092-.215.189-.333.253-.124.067-.24.119-.366.185-.193.104-.198.097-.337.25-.101.111-.227.16-.363.223-.779.366-.698.613-1.217 1.125-.245.242-.351.537-.48.66-.136.129-.195.09-.329.255-.101.126-.126.272-.225.361-.101.092-.23.129-.346.24-.161.156-.262.48-.475.698-.648.657.195 1.251-1.227 1.14-.131-.21-.175-.342-.264-.584-.154-.418-.428-.594-.661-.967-.168-.27-.21-.218-.418-.396-.153-.133-.235-.306-.376-.438-.141-.128-.309-.225-.423-.39-.2-.292-.423-.351-.596-.643-.185-.31-.378-.369-.618-.619-.23-.24-.544-.42-.851-.578-.062-.033-.072-.027-.126-.072-.19-.15-.2-.235-.472-.341-.512-.2-.468-.366-.997-.633-.173-.087-.391-.161-.522-.295-.346-.353-.702-.334-1.123-.537-.2-.096-.272-.217-.51-.304-.415-.15-.86-.178-1.275-.353-.223-.094-.324-.164-.572-.243-.437-.136-1.34-.195-2.045-.398-.458-.131-.9-.265-1.378-.28-.51-.017-1.026-.088-1.53-.096-1.51-.025-7.82-.21-9.13.312-.269.106-.56.15-.825.245-.453.16-1.232.047-2.028.415-.198.092-.342.166-.579.235-.64.186-.576.094-1.207.42-.38.196-.794.245-1.07.59-.189.237-.214.19-.505.31-.399.167-.599.453-.99.639-.12.057-.18.062-.28.143-.078.067-.118.124-.2.19-.314.256-.73.305-1.001.627-.26.306-.54.556-.784.877-.272.357-.844.873-1.2 1.245-.138.145-.284.24-.408.405-.222.302-.247.824-.613 1.017-.166.089-.369.26-.512.306-.208-.128-.31-.645-.406-.935-.104-.314-.306-.541-.5-.8-.47-.63-.395-.416-.632-.703a1.226 1.226 0 01-.136-.193c-.122-.205-.342-.28-.468-.51-.307-.559-.242-.343-.591-.744-.06-.067-.072-.102-.148-.178-.183-.183-.371-.235-.554-.423-.307-.314-.478-.255-.839-.463-.217-.123-.2-.153-.363-.289-.164-.134-.245-.134-.423-.228-.369-.195-.29-.422-.755-.58-.623-.213-.526-.275-.86-.443-.235-.117-.638-.122-1.086-.25-.131-.037-.312-.072-.403-.176l-.017-.027c-.072-.082-.423-.213-.54-.267-.089-.042-.304-.052-.41-.064-.532-.055-1.274-.075-1.717-.25-.165-.067-.289-.149-.467-.176a12.312 12.312 0 00-1.808-.14c-.218 0-.472.012-.685-.008-.65-.057-1.224-.052-1.89-.055-.878 0-1.758-.012-2.639-.01-1.713.008-3.435-.086-5.146-.094-.433 0-.812-.096-1.237-.096l-1.271-.037c-.196-.015-.4-.062-.616-.062-.252 0-.386-.012-.616-.042-.326-.042-.883-.045-1.244-.054-4.647-.159-3.19-.225-5.859-.24-1.489-.008-2.958-.215-4.415-.44-.732-.114-.925-.05-1.5-.127-.48-.064-1.017-.059-1.512-.081l-1.528-.1c-.555-.002-.945-.076-1.5-.096-.289-.01-1.003-.133-1.463-.165-.235-.015-.505-.06-.728-.087-.42-.052-1.145-.03-1.483-.111l-2.315-.097c-.448-.005-2.11-.198-2.278-.099-.116.07-.26.314-.265.517-.02 1.066.005 2.157.005 3.225 0 8.575.064 17.164.064 25.73 0 4.305.008 8.576.03 12.895.003.559-.005 1.078.064 1.568.037.264.169.326.265.546.195.448.21.858.465 1.128.361.381.302.767.542 1.088.123.166.215.206.356.426.14.217.19.264.428.383.541.272.108.237.976.65.1.047.149.077.263.127.123.054.136.081.222.175.077.08.119.139.223.198.6.354.282.292.606.601.15.144.319.188.435.381.126.208.099.314.28.5.289.296.363.742.477 1.154.131.468.284.656.418 1.18.03.119.067.228.089.33.025.115.017.24.034.36.087.579.2.591.367.868.123.21.21.634.287.888.032.11.074.206.12.3.102.207.186.116.52.685.121.207.262.225.428.383.166.158.188.317.324.457.07.075.148.127.22.206.19.21.21.47.492.712.324.277.384.646 1.242 1.167a.83.83 0 01.237.188c.393.438.448.312.633.574.136.193.168.277.356.423.453.354.203.205.409.408.148.146.338.186.487.327.15.143.207.299.4.413.107.062.154.069.25.14.111.085.109.105.196.199.277.311.749.276 1.019.61.074.092.103.151.188.235.074.075.138.117.217.173.203.149.218.228.374.411.165.193.37.252.467.346.099.1.077.119.205.218.342.265.394.116.737.467.275.28.629.218.453.356l.045.018-.008.007zM18.1 10.195c0-.49-.049-1.313.038-1.788.11-.614 2.023-.41 2.485-.34.196.03.4.013.604.026.178.01.334.054.52.061.444.018.731.057 1.11.097.237.025.47.02.672.101.369.146 2.1.129 2.842.134.38 0 .72.054 1.14.054.443 0 2.07.045 2.355.013.455-.052 1.919.079 2.498.054.252-.01.254-.04.519-.002.198.027.386.071.586.059.78-.05 1.548.04 2.313.04.358 0 .534.04.878.098.24.042.309.077.51.171.43.203.462.077.46 1.222 0 1.051-.04 2.107-.01 3.158l.007 6.643c.007 2.023.113 1.979-1.163 1.979L34.55 21.9c-.2-.023-.487-.188-.658-.188-.351 0-.908.106-1.274-.023-.138-.05-.104-.106-.254-.195-.193-.114-.567-.072-.846-.074-.628-.005-1.061-.1-1.694-.097-.386 0-.8-.059-1.108.112l-.005 1.07c0 .218.076.436.331.436.45 0 1.007-.055 1.422.007.141.02.206.077.366.084.873.047.609-.091 1.662.127.391.081.483-.033.846-.033.787 0 .814.117 1.24.161l.959.077c.06.081.114.166.136.287l.06.252c.041 1.543-.006 3.111.007 4.657.002.38-.025.801-.005 1.175.02.351.037.722.032 1.105-.005.396-.057.715-.015 1.12.064.614.03 1.304-.07 1.917-.036.223-.083.406-.257.485-.378.17-2.463-.067-3.002-.077-.245-.004-.522-.059-.747-.096a9.113 9.113 0 00-.717-.101c-.317-.027-.678-.057-1.017-.151a1.043 1.043 0 00-.35-.045c-.354-.007-.822-.2-.879.248-.02.153-.042.24-.06.336-.039.218.026.5.026.73l.034 10.845c-.005.47.126 1.38-.42 1.489-.67.133-1.482-.018-2.117-.025-.552-.005-2.18-.087-2.674-.156-.616-.087-1.21-.141-1.803-.314-.514-.151-2.557-.16-3.134-.386-.183-.072-.333-.143-.385-.336-.159-.609-.077-2.614-.08-3.27-.032-6.47 0-12.94-.004-19.41v-13.45h.005zm141.714-1.487c.536-.066 1.711-.178 2.072.248.176.205.089 3.53.092 3.942.005.782.032 6.218-.005 6.67a6.57 6.57 0 00-.025.463c-.007.692-1.115.668-1.726.705-.957.06-1.788.076-2.689.284-.217.05-.188.012-.269.215-.161.399-.084.967-.084 1.4l-.015 13.84c.012 3.203-.025 6.406 0 9.606.005.718.18 1.912-.552 1.96l-2.052.096c-.46.012-.93.032-1.343.081-.223.027-.475-.015-.685.047-.446.126-.609.013-.94.129-.161.057-1.306.128-1.615.178-.52.081-1.467.148-1.999.15-.336 0-.714-.01-1.016.026-.322.037-1.059.093-1.321-.13-.074-.064-.064-.076-.114-.145-.126-.173-.207-.213-.242-.472-.032-8.456.057-16.878.054-25.297v-.554c0-.123-.368-.267-.551-.262-.27.005-.433.074-.749.067a17.75 17.75 0 00-1.596.032l-1.889.005c-.856.003-1.197.144-1.21-1.078-.029-3.008.008-6.015 0-9.023 0-.4-.074-1.77.122-2.032.086-.117.244-.164.41-.179l19.939-.967-.002-.005zm-29.063 1.037c.326 0 .722.017 1.041-.008.942-.069 2.095-.086 3.03-.086h1.889c1.173-.005 1.291-.129 1.294.445v1.53c0 1.487.052 9.654-.027 10.458-.025.257 0 .423-.211.526-.042.02-.007.005-.044.02-.213.082-2.891.018-3.453.025l-1.076-.032c-1.073-.023-2.151.015-3.225.007-.2 0-.381-.04-.618-.04l-.685.013c-.228 0-.388-.037-.586-.04-.215-.002-.359.035-.586.038-.22 0-.366-.038-.586-.045-.23-.005-.386.022-.589.04-.275.024-.242.089-.302.321-.116.463-.168.433-.059.92.076.341.586.235.947.238.208 0 .465.022.596.012 1.239-.101 1.885.027 3.05-.055 6.962-.506 8.723 6.389 8.547 12.53-.302 10.491-4.452 12.76-13.365 12.767-.317 0-.547.05-.849.04-.272-.008-.526-.045-.845-.043l-.913.008c-1.642-.003-7.553.02-7.904-.042h-4.7c-.274 0-1.026.059-1.197-.062-.39-.272-.301-.398-.301-.97-.015-3.462-.028-6.927.005-10.39 0-.247.096-.569.301-.7.176-.111.693-.136.965-.136l1.768-.086-.059-.005c1.17-.017 2.335-.008 3.502-.07.801-.041 1.615-.044 2.411-.1.322-.026.68.011.985-.026.425-.05.873 0 1.259-.044.22-.025.301-.064.588-.062.235.003.371.054.616.025.19-.022.369-.067.589-.064.21.002.437.03.64-.013l.507-.146c.047-.128.099-.512.102-.69.005-.435.084-.67-.27-.7l-.49-.03c-1.375-.049-2.809-.044-4.167-.064-.527-.007-1.111.02-1.6-.025-8.622-.783-11.137-14.32-6.646-19.479.166-.19.168-.343.317-.497.161-.168.307-.133.42-.363.275-.55.364-.389.539-.666.23-.366.52-.43.626-.578.163-.223.126-.267.411-.403.643-.307.047-.188.967-.634.732-.356.373-.435.999-.623.556-.166.529-.346 1.071-.53.692-.232 1.155-.12 1.637-.41.111-.066.126-.081.26-.128.391-.144 1.654-.248 2.107-.267.277-.013.527-.015.784-.033.282-.02.401-.056.715-.059.17 0 .344.005.512-.017.066-.01.163-.02.227-.032.057-.013.136-.05.173-.05.547 0 1.141.035 1.65-.114.314-.091.193-.091.564-.047.321.037.48.015.772-.081.425-.141.474.111 1.177-.06.435-.106.868-.047 1.311-.044 1.162.005 2.322-.08 3.484-.08l-.002.006zm-92.333 1.068c0-1.63-.067-1.763 1.113-1.766l8.434.267c.232 0 .094.025.237.052.418.077.85.052 1.264.104l.39.124c.337.022.673.079 1.007.079.381 0 .685.007 1.044.045.618.061 1.482.027 2.15.034.828.01 3.383.094 4.038.334.55.198 1.145.275 1.823.351.89.1.974.366 1.652.535 1.42.35.767.319 1.53.625.265.107.555.163.75.369.265.28.666.43.913.717.188.218.462.307.613.492.094.114.109.186.223.297.118.116.193.131.319.23.14.111.136.178.245.319.17.222.39.26.529.549.104.218.198.551.366.697.245.213.26.369.371.725.109.346.25.42.39.707.134.27.169.525.238.826.074.31.082.626.225.883.097.171.074.235.129.426.096.339.215 1.034.222 1.395l.02.415c.052.243.104 1.348.107 1.603.002.715.066 1.944-.057 2.604-.126.673-.052 2.033-.337 2.59-.188.366-.277.771-.314 1.19-.017.182-.06.338-.101.511l-.166.453c-.072.14-.19.215-.252.363-.07.161-.084.34-.151.502-.094.23-.136.463-.31.629-.153.148-.22.403-.34.573-.114.161-.228.193-.374.273-.163.088-.116.217-.252.368-.144.158-.183.146-.356.26l-.263.36c-.279.37-.328.122-.59.678-.087.186-.174.243-.169.463l.052.448c.193.774.082.511.17 1.226.006.047.01.1.02.146.062.292.07.591.203.87.178.372.035.31.426.56.2.126.623.047.87.052l1.074.037c.296 0 .69-.02.86.262.347.574.25.752.25 1.546l.022 1.857c-.042 1.769.008 3.54.005 5.308 0 .46.057 2.149-.116 2.458-.089.158-.247.329-.438.329-1.365 0-2.775.05-4.135-.032-.222-.013-.336.025-.522.032-.388.015-.712-.074-1.098-.02-.574.082-2.27-.015-2.874-.015l-1.367-.034c-.193 0-.245.034-.423.034-.262 0-.47-.111-.722-.12-.169-.008-.587.202-.985.044-.183-.072-.262-.12-.46-.03-.158.072-.368.012-.455.072-.057-.1-.04-.122-.052-.151-.06-.134-.262-.154-.351-.351-.487-1.113-1.432-11.862-1.907-12.26l-.4-.104c-.087-.012-.196-.04-.297-.022-.344.06 1.083 10.375 1.125 11.728.037 1.16-.606.905-2.367.89-2.476-.02-4.951-.067-7.425-.042l-2.638-.064c-.463 0-.854-.01-1.262-.072a1.123 1.123 0 01-.66-.351c-.092-.1-.104-.062-.186-.141-.084-.082-.188-.341-.202-.482l-.005-8.14c.01-2.832-.035-5.666 0-8.5l-.032-1.4c0-.277.032-.468.032-.717l-.035-18.107-.005.005zM70.605 37.19c-.04-.109-.06-.109-.09-.198-.123-.4-.14-1.145-.182-1.585-.072-.737-.19-1.425-.216-2.184-.012-.406-.11-.688-.138-1.073a29.269 29.269 0 01-.097-2.28l.062-2.345c.005-.364.082-.735.129-1.049l.094-.814c.072-.447.074-.902.13-1.35.026-.2.073-.369.075-.532.007-.504.05-1.113.245-1.543l.21-.571c.114-.267.163-1.34.413-1.833.144-.284.262-.512.327-.836.109-.554.484-.559.66-1.138.05-.165.099-.311.17-.45.117-.225.142-.18.26-.336.171-.225.213-.554.406-.799.094-.119.19-.17.282-.302.082-.116.121-.24.215-.37.106-.152.198-.181.322-.302.103-.102.153-.216.257-.332.124-.138.198-.165.334-.284.12-.107.153-.22.264-.324l.337-.282c.255-.2.23-.346.608-.562.188-.106.158-.155.287-.299.173-.193.534-.27.745-.465.165-.153.336-.262.56-.356.112-.047.206-.05.298-.119l.254-.232a1.01 1.01 0 01.35-.24c.415-.156.486-.124.813-.361.512-.374 1.32-.334 1.803-.601.356-.195 1.555-.435 1.929-.44a3.6 3.6 0 001.066-.144c.42-.106.616-.126 1.051-.16.188-.015.074-.038.26-.053l1.954-.1c.442-.006 3.66.016 4.088.11l.537.05c.284.005.702.128.996.2.584.141 2.25.188 2.736.43l.02.013c.004.002.014.01.02.012l.041.025c.656.349 1.398.297 2.038.665l.804.396c.304.186.265.322.67.497.141.062.31.121.435.188.075.037.129.067.186.111.094.077.07.092.138.154.134.123.51.21.755.452.227.223.395.334.675.525.401.274.811.858 1.148 1.234.331.37.912.843 1.147 1.268.074.139.106.255.223.357.16.138.16.094.274.309.156.3.208.685.324.883.21.351.198.203.445.757.065.143.119.291.196.422.084.146.19.179.277.315.153.242.212.633.282.92.128.531.193.457.356.848.148.351.25 1.533.363 2.05.04.173.075.285.124.463.242.85.265 1.75.314 2.686.087 1.58.06 3.17.057 4.756-.007 11.112-6.057 18.066-17 18.915-1.403.109-3.228-.064-4.623-.102-7.49-.205-12.34-5.878-14.49-12.66l-.003-.005zm79.914 13.16c0-.358.072-.438.196-.784.156-.433.217-.482.977-.482.193 0 .353.185.442.366.052.104.077.15.117.272.175.522.331.111.17.9-.054.267-.109.27-.205.41-.04.06-.045.097-.077.154-.007.012-.294.364-.415.398-.114.032-.243.032-.391.032-.319.005-.247.018-.509-.304-.307-.376-.307-.507-.307-.964l.002.002zm3.908 2.998a1.569 1.569 0 01-.106.185l-.121.203c-.176.257-.218.636-.683.628-.341-.005-.628-.054-.861-.287-.128-.128-.074-.203-.195-.358l-.015-.018-.096-.13-.072-.095c-.144-.188-.158-.153-.124-.343.131-.71.191-.414.369-.903.18-.5.153-.621.601-.71.437-.09.687-.084.957.287.094.128.143.28.227.423.087.15.156.267.159.494 0 .188.029.485-.037.621l-.003.003zm-7.355 1.887c-.018-.084-.005-.507-.003-.621.003-.183.087-.32.206-.443.089-.091.091-.054.131-.195.066-.245.076-.96.462-1.13.497-.22.252-.193.505-.475.212-.238 1.078-.272 1.34-.2.564.155.685-.151 1.19.496l.044.055c.032.037.04.05.074.089.248.292.384.329.48.791.154.752.181 1.578.023 2.34-.179.87-.426.492-.723 1.2-.071.17.008.089-.146.175-.222.126-.598.242-.68.3-.245.173-.653.338-.905.14-.24-.19-.198-.215-.67-.309-.319-.064-.186-.232-.512-.46-.307-.212-.421-.4-.458-.809-.024-.276-.259-.474-.356-.947l-.002.003zm-118.903.163c-.044-.262.099-.784.203-1 .287-.58.037-.66.613-1.177.146-.13.151-.163.364-.254.59-.252 1.61-.215 1.934.16.341.399.44.235.581.626.057.161.087.304.141.448l.062.133c.052.08.005.01.044.055.41.465.275 1.857.149 2.075-.055.094-.082.111-.144.183-.257.297-.12.821-.608 1.182l-.601.31c-.346.046-.616.19-.762.14-.106-.037-.094-.067-.418-.17-.198-.062-.274-.077-.415-.206a1.18 1.18 0 01-.144-.15c-.193-.263.005-.085-.29-.297-.274-.2-.395-.992-.615-1.534-.074-.183-.06-.319-.094-.522v-.002zm-2.866.457c-.025-.13.052-.34.081-.47.047-.215.04-.279.151-.435.074-.104.183-.262.294-.294.072-.02.488-.015.577 0 .158.022.25.119.338.215.263.292.117.16.238.349.223.349.383.153.376.801-.008.552-.018.374-.403.742-.21.2-.285.512-.698.458-.494-.067-.435.071-.687-.455-.052-.11-.151-.3-.18-.404-.038-.126-.063-.375-.085-.5l-.002-.007zm1.466 3.55c-.126-.772.245-1.178.72-1.363.339-.134.544.086.695.27.146.178.393.358.408.633.025.465.012.586-.215.828-.819.873-.618.554-1.118.18-.116-.086-.203-.106-.307-.215a.837.837 0 01-.18-.336l-.003.003z"/><path d="M70.21 11.986c1.451 0 .85-.443 1.234-.525.133-.027.22-.03.373-.116l.368-.282c.052-.052.072-.111.122-.173.252-.317.539-.25.756-.806.067-.169.07-.364.11-.542.432-.208.368.017.556-.517.128-.364.341-.119.522-.552.059-.138.168-.336.294-.422.106-.072.119-.06.188-.171.215-.346.074 0 .316-.4.075-.122.087-.07.183-.176.1-.11.03-.092.183-.24.042-.042-.007.017.05-.05a.51.51 0 00.077-.118c.16-.337.2-2.229-.114-2.602-.267-.317-2.028-.223-2.515-.223-.27 0-.903.074-1.153.215-.45.255.22.369-.997.436-.24.012-.465-.018-.697.02-.47.071-2.834-.035-3.403.18-.562.213.109.27-1.01.425-.635.09-.979.401-1.137 1.014-.082.317-.547.33-.39.962a.925.925 0 00.244.473c.106.106.082.06.153.205.127.26.24.282.337.379.079.079.074.116.16.197.263.243.616.322 1.118.317.216 0 .411.017.535.18.21.277.21.149.393.357.188.21.447.309.645.756.08.181.102.352.27.448.087.05.163.067.245.114.015.007.089.062.096.067.193.178.022.316.42.49.312.135.399.088.604.276a.089.089 0 00.017.015l.272.25c.13.082.371.143.574.143m0-.005L74.76 7.22zm17.135 24.911c.19.153.084.076.25.143.007.003.017.005.022.01.173.08.064.082.425.159.272.059.485.044.66 0 2.877-.718 1.987-12.362 1.23-13.517-.225-.343-.117-.38-.374-.569-.225-.165-1.162-.378-1.508-.299-.73.17-.807.136-1.217.64-1.375 1.692-.853 12.342.512 13.433z"/><path d="M117.969 8.063l.618-.116c.149-.03.552-.032.705-.045.255-.022.443-.052.665-.086.216-.035.473 0 .685-.032.443-.07.893-.075 1.353-.107.473-.034 1.15.084 1.788.06.401-.015.035-.107.975-.035.267.02.497-.02.72-.032l1.451.007c.186.023.47.035.698.023.455-.028.94-.028 1.432-.035.959-.012 1.983.035 2.901-.03.47-.032 1.004.025 1.442-.024l4.35-.04c.478 0 .93-.03 1.432-.03l1.304-.01c.101-.022.098.057.113-.074-.68 0-.665-.235-1.123-.193-.351.032-.917-.007-1.258.045-.451.067-2.051.02-2.62.02-.902 0-1.585.032-2.54.032h-6.578c-.134 0-.213-.02-.295-.022l-.91.022c-.868 0-1.776.027-2.639 0-.653-.02-1.884-.074-2.498.007-.183.025-.4.01-.618.03-.104.01-.329.047-.495.096-.165.05-.343.075-.484.168-.159.104.01.057-.22.104-.483.102-1.049.102-1.546.114l-.606.047c-.663.106-.688.349-.888.448-.458.222-1.303-.037-1.803.51-.094.103-.032.093-.186.14-.237.072-.524.082-.695.282-.294.341.097.183-.608.4-.873.268-.438.448-.715.59-.064.032-.198.039-.269.056-.257.057-.569.25-.72.453-.042.057-.02.042-.084.08a1.86 1.86 0 01-.228.098c-.175.062-.311.07-.415.235-.111.178-.04.304-.245.406-.193.094-.274.098-.364.319-.267.65-.304.301-.591.71l-.039.059-.015.017-.089.106c-.109.141-.245.228-.322.332-.084.114-.022.096-.148.21-.007.008-.03.022-.035.03l-.123.136c-.188.28.007.148-.359.457-.104.09-.171.141-.21.28-.032.106-.035.156-.055.272-.029.173-.089.38-.089.596-.222-.052-.418-.173-.65-.228 0-.267-.087-.66-.319-.789a.638.638 0 00-.299-.091c-.126-.542-.114-.527-.651-.65-.015-.708-.391-.468-.588-.651-.221-.203.153-.433-.651-.62 0-.572-.205-.458-.47-.802-.054-.072-.079-.084-.136-.158-.178-.233-.41-.213-.697-.28 0-.636-.46-.46-.873-.626-.208-.084-.312-.358-.492-.45-.174-.089-.31-.064-.463-.123-.314-.124.126-.344-.65-.587a1.78 1.78 0 00-.552-.069c-.111-.165-.166-.329-.356-.425-.351-.178-.87-.07-1.276-.223-.163-.062-.161-.334-.347-.435-.128-.07-1.192-.156-1.41-.156-.12 0-.269.008-.388-.002-.34-.032-.232-.183-.477-.305-.119-.059-.146-.081-.252-.138-.423-.233-.826-.067-1.301-.131-.252-.035-.517.005-.774-.01-.149-.007-.178-.035-.356-.035l-2.706-.032c-.215 0-.354-.05-.537-.057-.178-.007-.076-.034-.114.057h-.358c-.003-.133 0-.116-.297-.173-.218-.042-.393-.025-.598-.005l-.164.013c-.175.042-.274-.015-.455-.01-.155.005-.252-.055-.39.03-.188.113-.141.148-.44.148l-2.803.03c-.227 0-.317.034-.551.034-.369 0-1.22-.015-1.507.188-.178.124-.136.19-.22.366-.247 0-.467.045-.685.064-.53.045-1.729-.168-1.79.557-.394 0-1.356.153-1.583.306-.11.072-.149.171-.198.26-.07.124-.183.102-.351.139-.139.03-.228.064-.302.153-.109.126-.371.368-.53.415-.12.038-.254.06-.38.11-.386.148-.252.452-.418.526-.05.022-.304.04-.393.064-.218.06-.485.186-.584.394l-.09.138s-.157.07-.185.077c-.34.109-.405.054-.529.415-.072.208-.022.154-.235.22-.3.094-.284.32-.396.55-.069.143-.175.098-.311.178-.29.173-.159.437-.391.554-.126.061-.188.032-.319.138-.146.121-.101.153-.176.314-.193.423-.462-.215-.732 1.158-.042.21-.076.138-.301.185a1.359 1.359 0 00-.362.129c-.01-.119-.03-.102-.051-.21-.072-.347-.005-.824-.381-1.02-.19-.098-.218-.071-.292-.294-.178-.531-.5-.331-.581-.559-.057-.163-.028-.262-.169-.386-.136-.118-.272-.1-.415-.17-.092-.389-.144-.67-.495-.905-.208-.136-.101-.144-.485-.361-.286-.164-.252-.411-.722-.517-.648-.146-.267-.475-1.132-.658-.497-.107-.19-.067-.42-.393-.142-.198-.446-.198-.636-.31-.282-.165-.08-.356-.95-.482-.208-.03-.688-.047-.853-.124-.23-.106-.2-.526-1.405-.517-.337.003-.962-.014-1.224-.207-.537-.398-1.168-.3-1.564-.359l-8.918-.2-1.776-.146c-.346 0-.62-.01-.942-.035a46.114 46.114 0 00-3.65-.128c-.639 0-1.222-.032-1.89-.032-.346 0-.601-.035-.913-.033h-.98c-.194 0-.236-.032-.42-.034h-.49c-.145 0-.343.01-.484-.003-.23-.022-.19-.067-.329-.16.032-.144.084-.137.096-.295-.145 0-.21.003-.316-.032-.027.245-.092.339.072.537.104.126.254.195.47.2l3.81.131c.362.01.918.012 1.245.055.23.03.363.04.616.042.215 0 .42.047.615.061l1.272.038c.425 0 .804.094 1.236.096 1.712.007 3.43.101 5.147.094.878-.003 1.759.007 2.64.01.664 0 1.238-.005 1.889.054.212.02.467.005.685.008.6.005 1.217.047 1.808.14.178.028.301.11.467.176.443.176 1.185.196 1.716.25.104.01.32.022.411.064.116.055.468.186.54.267l.017.028c.089.106.27.138.403.175.447.129.85.134 1.085.25.334.166.238.23.861.443.465.158.386.386.754.581.178.094.263.094.423.227.166.136.146.164.364.29.361.208.532.148.838.462.183.188.371.24.554.423.077.077.09.11.149.178.346.401.282.186.59.745.127.23.347.302.468.51.05.083.077.118.136.192.238.287.161.074.633.703.196.26.396.484.5.8.096.293.198.807.406.936.143-.047.343-.218.512-.307.363-.193.39-.715.613-1.016.124-.166.27-.26.408-.406.356-.371.928-.888 1.2-1.244.242-.32.521-.571.784-.878.274-.321.687-.371 1.001-.626.082-.066.121-.123.2-.19.097-.082.159-.087.28-.144.39-.185.591-.472.99-.638.291-.12.316-.074.504-.311.274-.344.69-.394 1.07-.589.631-.326.57-.235 1.208-.42.237-.07.38-.144.578-.235.8-.369 1.576-.253 2.029-.416.264-.094.558-.138.825-.245 1.309-.522 7.623-.336 9.13-.311.504.007 1.02.079 1.53.096.477.017.92.148 1.378.28.705.202 1.605.262 2.045.398.25.076.351.148.571.242.416.176.861.203 1.276.354.238.086.31.208.51.304.42.203.78.183 1.123.537.13.133.349.207.522.294.529.267.484.433.996.633.27.107.282.19.473.342.054.044.067.039.126.071.309.159.621.339.851.579.24.25.435.307.618.618.173.292.396.351.596.643.114.166.282.262.423.391.143.131.223.304.376.438.205.178.25.126.418.396.232.37.509.549.66.966.089.243.134.377.265.584l.678.052c.326-.356.237-.878.549-1.192.215-.218.314-.542.474-.697.117-.112.245-.149.347-.24.099-.09.123-.235.225-.361.133-.169.193-.129.329-.255.128-.121.235-.418.48-.66.519-.512.44-.76 1.216-1.126.136-.064.263-.111.364-.222.138-.154.143-.146.336-.25.126-.067.245-.119.366-.186.122-.064.225-.163.334-.252.225-.185.544-.245.762-.41.351-.27.134-.317.707-.465 1.044-.27.495-.404 1.704-.606.997-.169.854-.287 1.346-.413a10.234 10.234 0 011.546-.216M23.5 62.056c-.106-.275-.05-.19-.28-.41a.612.612 0 01-.172-.246c-.047-.11-.077-.165-.121-.27-.052-.118-.077-.19-.127-.296l-.042-.091-.165-.132c-.186-.158-.186-.363-.273-.57-.061-.15-.175-.456-.289-.562-.086-.082-.14-.087-.225-.198l-.082-.114c-.079-.131-.108-.292-.237-.386-.042-.032-.084-.047-.14-.084-.4-.255-.24-.319-.439-.571-.153-.195-.257-.198-.368-.472l-.275-.547c-.183.015-.517.2-.625.31-.193.192-.018.558.042.724.089.252.175.26.272.643.052.205.136.366.227.554.144.297.27.188.406.603l.099.285c.06.15.044.2.12.346.07.136.115.14.194.264.608.928.119 3.478.314 4.635.044.265.091.44.29.629.313.296.402.74.808.984.07.042.087.042.143.084l.389.262c.264.203.13.223.588.33.819.19.67.509 1.235.59l.348.07.025.01c.16.056.307.098.44.207.2.166.062.183.379.31.25.098.321.254.447.454.07.107.013.055.134.104.546.23.356.364.576.557.2.175.312.084.455.418.218.5.067.163.426.492.143.13.081.101.155.297.097.26.364.207.525.39.153.173.116.401.38.505.176.07.161.032.28.17.072.085.037.043.084.14.092.197.238.182.428.266.156.07.24.2.292.349.047.133 0 .091.104.136.143.064 1.17.101 1.251.02.074-.17.045-.53.03-.755-.2-.153-.32-.133-.438-.403-.195-.44-.227-.205-.386-.363-.118-.117-.136-.082-.203-.25-.227-.579-.427-.349-.618-.623-.218-.317-.054-.19-.45-.403-.23-.124-.19-.315-.336-.473-.149-.16-.337-.099-.505-.341-.081-.119-.047-.186-.158-.27-.077-.057-.183-.074-.272-.121-.272-.138-.2-.287-.341-.497-.117-.173-.325-.116-.456-.39-.148-.313-.118-.28-.398-.458-.222-.141-.207-.26-.353-.456-.151-.205-.275-.202-.409-.435-.26-.45-.207-.655-.427-.816-.428-.314-.33-.829-.522-1.135-.112-.178-.25-.218-.344-.5-.18-.544-.267-.531-.574-.898-.005-.004-.01-.012-.015-.017a1.23 1.23 0 01-.198-.383c-.136-.418-.353-.408-.573-1.086l-.045-.121-.005.005zm126.987 9.947c.075-.096.082-.21.151-.301.057-.075.193-.12.292-.164.512-.225.297-.195.458-.457.096-.159.423-.062.613-.522.129-.307.438-.213.559-.552.052-.145.094-.163.2-.252.319-.262.211.013.408-.477a.421.421 0 01.201-.252c.373-.253.235-.112.386-.527.326-.903.346-.56.509-.824 0 0 .314-.833.406-.962.086-.123.156-.114.222-.232.144-.253.129-.606.507-1.056.037-.045.079-.075.112-.117.16-.215.272-1.029.447-1.343.072-.126.107-.123.109-.326 0-.126-.012-.302.027-.393a1.381 1.381 0 00-.816-.24c-.705.022-.423.054-.89.16-.151.035-.119-.017-.208.09-.131.15-.129.19-.467.316-.399.146-.433.378-.582.492-.155.119-.158.09-.289.265l-.22.334c-.186.232-.181.106-.307.247-.128.144-.109.327-.227.589-.176.393-.181 0-.621.97-.027.056-.05.113-.092.168-.091.12-.242.158-.294.26-.03.056-.069.303-.178.471l-.27.179c-.155.066-.2.316-.499.578-.302.267-.366.43-.502.572-.126.128-.22.136-.406.41-.156.23.013.067-.232.287-.112.099-.084.151-.27.282-.245.173-.111.16-.23.292-.067.074-.059.022-.129.133l-.173.282-.015.018c-.086.089-.106.03-.207.116-.136.119-.124.406-.26.556-.19.216-.282.085-.349.275-.032.089-.052.195-.118.302a.433.433 0 01-.287.193c-.248.056-.223-.01-.265.24-.077.474-.349.536-.534.727-.129.13-.2.826-.2 1.014.042.032-.013 0 .064.044l.044.025c.131.06.171.01.386.007.797-.005.586-.12.886-.329.549-.378.546-.123.858-.348.123-.092.099-.282.638-.535a1.31 1.31 0 01.457-.13c.035-.438.708-.54 1.202-.565"/><path d="M106.293 7.558c0 .277.025.66.074.903.07.344.206.386.547.465.153.663.198.549.638.663.181.047.146.096.267.188l.418.232c.282.16 2.258.39 2.323-.403.279-.007.84-.099 1.006-.297.121-.143.104-.198.176-.344.165-.34.42-.195.556-.779.126-.536.094-1.699.05-2.292a.548.548 0 00-.245-.44c-.245-.154-.26.012-.354-.33-.062-.222-.116-.314-.331-.385-.431-.141-.24-.09-.379-.307-.136-.21-.774-.351-1.036-.366-.265-.015-.415.032-.685.032-.27 0-.495-.062-.772-.025-.207.028-.512.035-.707.107-.171.064-.227.126-.287.299-.089.26.037.077-.388.23-.374.136-.013.158-.633.606-.136.099-.208.378-.211.603-.004.574-.032 1.052-.032 1.63m.005.01l2.06 1.947zM33.71 69.778c-.09.099-.159.024-.384.03-.07.118-.05.125-.178.192.005.183.091.173.188.29.121.143.07.24.138.383h.295c0-.31-.116-.334.163-.522.131.035.24.148.368.218.176.094.28.074.406.213.438.472-.096.098.665.573.314.196.159.223.71.495.23.114.374.19.532.38.052.063.104.107.16.166.537.54.265.072.644.856.143.297.16.304.38.562.191.22.24.531.473.764.232.232.336.438.453.786.056.174.091.25.195.391.326.438.329.915.594 1.261.277.361.24.371.432.772a.883.883 0 00.275.344c.131.106.158.22.235.386.383.826.368.497.732 1.093.15.247.42.302.645.593.186.243.433.379.601.638.12.184.12.186.307.312.388.26.092.435.777.72.69.284.183.29 1.528.62.277.07.388.191.591.32.359.227.812.22 1.25.282.717.103 1.068.413 1.96.514l1.697.129c.195.005.344.032.586.032.653 0 1.19-.067 1.79-.064l1.75-.107c.759-.111 1.125-.398 1.966-.477.556-.052 1.157-.057 1.721-.136.193-.027.339-.065.52-.1.165-.031.323-.058.49-.096.667-.145.64-.158 1.337-.192.144-.008.136-.03.292-.035.697-.02 1.664.02 2.31.136.133.025.312.114.435.15.839.258 1.952.194 2.78.315.354.052.69.034.98.26.467.363 1.855.326 2.582.447.482.082-.114.386 1.3.557.265.032.629.05.82.222.64.584 2.054.223 2.61.646.63.477 1.772.339 2.568.495.433.086.623.492 1.954.487.433 0 .764.02 1.175.03.561.014 1.16.083 1.726.13.21.018.252.1.475.146.302.062.781.121 1.14.07.272-.04.48-.045.722-.156.3-.141 1.02-.156 1.407-.156.52 0 2.437-.064 2.852-.208.245-.084.225-.24.416-.334.13-.064.282-.069.413-.076.524-.028 1.167-.057 1.632-.223.408-.146.114-.324.836-.403.163-.017.339-.055.527-.06.324-.007.732-.049.97-.269.2-.185.049-.23.887-.317a3.47 3.47 0 00.527-.091.64.64 0 00.361-.26c.106-.163.106-.232.383-.235.225-.002.324-.025.557-.03.148-.002.138-.022.262-.032.104-.007.22.005.324 0 .14-.007.119-.024.26-.032.11-.005.205.008.316-.01.153-.02.406-.01.579-.042.304-.056.68-.156.952-.287.21-.099.25-.1.485-.133.448-.062 1.318-.057 1.736-.015.297.03.24.072.438.18.497.278 1.078.198 1.563.263.386.05.764.054 1.162.074.164.007.354.047.522.064.299.03.248.055.384.235.222.292.603.252.937.3.255.037.809.064.999.237.443.406 1.42.339 2.038.406.19.02.356.027.591.027.218 0 .376.047.529.091.24.07.629.478 1.979.465.24-.002.339.032.551.035.587 0 1.18.022 1.752.106.806.116.754.388 2.092.381.178 0 .413-.012.584 0 .655.054 1.414-.044 1.785.007.178.025.324.003.544-.027.327-.044.774 0 1.071-.165.161-.09.23-.156.421-.2.734-.174 1.993-.035 2.54-.52.101-.092.062-.052.185-.106.082-.038.129-.07.225-.102.319-.109.742-.099 1.071-.166.559-.113.426-.183.831-.373.151-.07.309-.094.475-.144.158-.046.319-.069.507-.113.49-.112.631-.33 1.35-.473 1.608-.319 4.65.186 5.815-.245.195-.071.218-.148.354-.264.252-.215.529-.218.739-.497.27-.359.519-.327.658-.841.064-.233.2-.443.282-.663l.218-.66c.039-.097.052-.136.091-.233.129-.311.388-.398.542-.697.089-.17.126-.282.262-.42l.017-.018a.095.095 0 01.018-.015c.034-.034.044-.034.084-.079.269-.294.291-.72.601-.962a1.12 1.12 0 00.274-.312c.307-.522.369-.232.745-.786.128-.19.324-.262.455-.455.094-.139.128-.258.237-.381.139-.156.183-.109.302-.32.079-.14.133-.256.235-.382.539-.656.677-.604.947-.878.027-.028.037-.043.062-.07l.079-.081c.059-.055.114-.114.171-.156.143-.107.227-.112.353-.265.104-.124.144-.237.26-.359l.232-.224c.072-.065.018 0 .082-.082.205-.248.324-.581.569-.799l.017-.015c.22-.203.272-.408.438-.606.096-.116.225-.173.314-.304.094-.136.131-.265.22-.4a1.8 1.8 0 01.124-.171c.084-.107.091-.07.171-.156.064-.07.163-.302.207-.41.065-.154.107-.317.176-.443.225-.403.373-.008.45-.755.04-.376.027-.727.146-1.09.054-.166.082-.322.193-.426.423-.398 0-.415.576-1.278.198 0 .317.004.359.163.24-.161.21-.448.633-.455v-.436c-.047-.032-.064-.042-.119-.081-.099-.067-.032.03-.106-.097-.131.01-.193.015-.272.1-.163.172-.136.34-.389.514-.225.153-.286.311-.422.531-.005.01-.02.025-.038.065-.079.175-.126.408-.232.578-.356.564-.317.841-.428 1.437a3.166 3.166 0 01-.131.478l-.037.091s-.008.015-.01.023c-.047.098 0 .027-.059.103-.03.037-.052.052-.079.082-.315.349-.231.752-.718 1.269-.225.24-.215.603-.472.761-.282.174-.314.515-.542.698-.079.062-.104.052-.193.136-.217.205-.324.559-.655.873-.366.346-.314.547-.477.628a2.581 2.581 0 00-.626.45c-.247.253-.618.46-.826.737l-.121.174c-.04.059-.075.116-.112.183-.042.081-.057.158-.096.23-.067.116-.042.056-.158.13-.344.216-.255.565-.515.723-.138.084-.262.124-.339.284-.096.198-.059.22-.242.34-.176.113-.225.063-.374.246-.113.141-.084.24-.237.381-.086.08-.111.057-.2.124-.255.193-.319.665-.584.947-.151.163-.185.116-.27.354-.061.17-.071.316-.192.42-.322.277-.253-.01-.54.7-.178.438-.049.151-.22.398-.217.32-.272 1.245-.46 1.395-.131.104-.24.097-.376.243-.108.118-.118.267-.252.363-.166.121-.438.084-.641.275l-.111.079c-.039.02-.022.005-.089.044-.114.07-.064.072-.198.127-.747.299-2.918.081-3.786.081-.604 0-2.295.077-2.763.339-.151.084-.208.17-.378.24-.265.109-.646.173-.95.255-.376.101-.509.264-.868.368-.735.213-1.232.159-1.904.574-.225.139-.681.183-1.009.225-.542.07-1.111.064-1.618.24-.376.131-1.229.2-1.652.2-.794 0-1.645.055-2.431-.044l-1.066-.163c-.146-.035-.401-.042-.562-.062l-.544-.067c-.4-.052-.779-.02-1.182-.064-.611-.067-1.036-.072-1.622-.23l-1.536-.322c-.337-.052-.745-.04-1.106-.101-.356-.062-.717-.107-1.016-.218-.317-.116-.648-.173-.992-.252-.366-.084-.658-.136-.994-.238a1.729 1.729 0 01-.238-.086c-.217-.104-.353-.218-.616-.297-.249-.074-.808-.109-1.103-.138-1.041-.102-1.966-.478-3.227-.483-.844-.005-1.736-.037-2.461.178a9.27 9.27 0 01-1.966.344c-1.326.104-.935.435-1.843.633-.353.08-.69.111-1.019.22-.205.07-.24.129-.42.2-.468.184-.994.218-1.472.35-.37.1-.732.294-.907.328-.324.065-.663.144-1.042.196-.356.05-.63.173-.967.272a9.14 9.14 0 01-1.019.217c-.339.055-.771.06-1.12.117-.287.047-.85.052-1.165.059-.784.022-1.568.173-2.352.084-.688-.077-1.617-.116-2.34-.148-.207-.01-.329-.052-.554-.057a9.787 9.787 0 01-.583-.035 4.086 4.086 0 01-1.03-.205c-.808-.277-2.552-.344-3.044-.633-.217-.129-.685-.218-.984-.258-.804-.108-1.284-.148-1.996-.474-.302-.139-.63-.171-1.004-.238-1.31-.23-.46-.4-1.843-.633-.36-.062-.732-.087-1.078-.16l-.955-.283c-.625-.217-1.444-.21-2.159-.316-.173-.025-.331-.084-.504-.111-.188-.03-.354-.067-.522-.102-1.214-.237-2.196-.28-3.448-.27-2.325.018-2.09.322-3.257.428-.586.055-1.716.169-2.214.265-.217.042-.551.109-.739.208-.294.15-.994.153-1.343.185-.78.072-1.62.062-2.414.06-.376 0-.791-.057-1.172-.07a7.504 7.504 0 01-.564-.047c-.413-.05-.542-.012-.89-.215-.164-.094-.381-.138-.577-.175-.193-.038-.338-.082-.514-.104-.19-.025-.361-.035-.561-.06-1.123-.15-.564-.34-1.833-.643-.668-.158-.396-.225-.834-.4-.875-.354-.682-.09-.954-.604-.156-.299-.386-.29-.46-.42-.052-.092-.1-.233-.171-.32l-.247-.21c-.3-.168-.206-.323-.423-.487-.124-.091-.314-.096-.398-.22l-.213-.405c-.084-.124-.186-.213-.294-.324-.277-.29-.265-.752-.599-.965-.25-.16-.205-.304-.319-.589-.06-.143-.119-.301-.21-.41-.126-.151-.196-.116-.287-.332-.16-.38-.131-.791-.46-1.105-.265-.252-.257-.747-.52-1.01-.148-.148-.16-.098-.301-.316-.097-.15-.107-.272-.19-.428-.114-.21-.196-.18-.31-.311-.05-.057-.146-.334-.188-.428-.227-.532-.232-.366-.559-.683-.43-.418-.062-.264-.888-.677-.413-.208-.217-.218-.519-.394-.163-.096-.29-.076-.423-.195-.114-.101-.163-.22-.272-.346-.176-.203-.435-.23-.717-.52-.11-.11-.282-.118-.418-.178m18.448-47.753c-.148 0-.233.01-.29.107-.168.294-.13 1.113-.133 1.43 0 .494-.03 1.077 0 1.562.007.131.042.208.072.317.158.561-.119.425.675.475 1.155.071.789.024 1.184-.324.156-.136.31-.176.344-.438.084-.613.025-1.657.01-2.278-.007-.329-.094-.364-.321-.467a.89.89 0 01-.396-.347l-1.148-.037h.003zm50.253-13.647c.049.116.103.116.215.158.455.176.282.168.435.277.138.096.079-.025.388.166a.638.638 0 00.579.012l.077-.054c.136-.084.104-.003.282-.11.158-.093.227-.185.413-.266.296-.131.257-.047.334-.398.049-.223.121-.344.056-.562-.192-.658.052-.383-.432-.655-.3-.168-.275-.25-.342-.366-.086-.149-.591-.287-.784-.248-.625.129-.522.216-.695.391-.054.057-.104.121-.155.17-.193.176-.322.026-.399.33-.022.084-.123.514-.113.573l.141.58v.002zM71.822 6.01c.247-.056.326-.034.635-.029.604.01.673.53.829.78l.116.298c.03.166-.136.275-.21.357l-.03.037c-.262.353-.109.504-.69.672-.564.164-1.118.238-1.704.042-.492-.165-.423-.549-.413-.932a.663.663 0 01.215-.453c.136-.133.196-.022.364-.321.24-.428.586-.376.888-.448"/><path d="M101.898 7.395c-.536.285-.143.581-.057.678.151.17.033.497.164.747.081.15.336.19.512.203.022.281.21.415.472.472.297.064 1.212.05 1.578.05.153 0 .235-.038.359-.065.037-.156.064-.294.064-.49.351-.081.514-.148.588-.517.065-.311 0-.165.183-.37.238-.273.28-.485-.019-.713-.168-.128-.144-.116-.171-.383-.044-.46-.255-.398-.648-.49 0-.43-.255-.586-.685-.586-.47 0-1.341-.092-1.573.185a.61.61 0 00-.104.223c-.042.163.008.153-.158.2-.339.094-.51.151-.51.859m1.598-1.215c.304-.067.45-.027.722.035.319.072.282.175.46.356.44.448.542.124.708.888.069.324.029.428-.028.72-.111.576-.247.272-.776.82-.22.228-.163.179-.549.233a2.311 2.311 0 01-.752-.03c-.285-.049-.24-.145-.492-.321-.515-.359-.537-.188-.668-.93-.045-.245.005-.462.052-.71.081-.415.284-.287.762-.836.183-.21.259-.16.559-.227l.002.002zm2.184 3.74c-.151 0-.24.097-.386.136-.571.161-.326.072-.492.54-.049.138-.084.244-.039.437.116.515.052.51.385.638.347.134.359.18.799.136.238-.024.277.047.431-.101.363-.349.183-.304.373-.606.079-.124.186-.163.131-.341-.034-.112-.161-.213-.21-.32-.03-.064-.045-.125-.074-.185a.74.74 0 00-.408-.319l-.515-.015h.005z"/><path d="M105.089 9.285c-.136.586-.062.235-.468.413-.299.134-.151.438-.304.576-.064.057-.131.038-.235.188a.941.941 0 00-.136.32c-.096.454.378.81.433.905.037.061.01.024.039.091.186.425.547.119.661.448.089.257.193.341.487.388.297.047.757.126.989-.2.173-.243.047-.33.418-.46.396-.141.391-.426.431-.905.024-.295 0-.458-.055-.765-.133-.764-.386-.321-.645-.658-.067-.086-.089-.383-.428-.447-.089-.018-.26.012-.406.012-.26 0-.613.017-.781.097m.507.242s-.01-.027.141-.035l.197.003c.446 0 .243.007.522.21.527.38 1.024.895.695 1.645-.138.314-.492.534-.747.715-.291.205 0 .145-.467.237-.057.01-.262.054-.309.042-.161-.04-.218-.23-.411-.326-.262-.132-.509-.159-.653-.448-.089-.18-.101-.364-.2-.517-.161-.252 0-.294.079-.495.186-.48.114-.596.656-.801.455-.17.185-.077.497-.228V9.53zM54.192 24.623c.062-.383.08-1.674-.087-2.033-.178-.388-.207-.289-.395-.452-.124-.107-.07-.104-.243-.176-.242-.099-1.38-.116-1.602-.02-.327.141-.258.176-.312.537-.042.28-.037.497-.037.809 0 1-.134 1.578.109 2.431.118.423.935.31 1.422.32.324.006.47-.063.633-.228.601-.614.398-.465.512-1.188zm-.878-2.574a.9.9 0 00.396.346c.227.104.314.139.321.468.013.62.072 1.664-.01 2.277-.034.262-.19.3-.343.438-.399.351-.033.398-1.185.324-.794-.05-.517.087-.675-.475-.03-.109-.065-.183-.072-.316-.03-.485-.003-1.069 0-1.563 0-.317-.035-1.136.133-1.43.055-.096.142-.106.29-.106l1.148.037h-.003zm7.965 62.301c-.312.163-.12.059-.31.234-.076.072-.091.042-.197.092-.112.052-.188.146-.352.235-.086.044-.133.042-.21.081-.341.186-.413 1.638-.344 1.979.035.168.072.336.097.487.035.198.086.3.106.48.047.428.285.193.554.433l.087.106c.057.067.099.08.166.129.071.052.089.094.15.14.29.23 1.635.25 2.08.13.292-.08.183.007.356-.206.206-.25.475-.193.666-.574l.062-.168c.22-.467.4.027.403-1.073 0-.317 0-.844-.065-1.126-.064-.274-.225-.032-.437-.437-.22-.42.044-.334-.428-.463a1.219 1.219 0 01-.215-.074l-.33-.255c-.195-.158-.224-.203-.692-.203l-1.15.05.003.002z"/><path d="M59.527 85.099c-.559.131-.554.784-.554 1.432 0 .445.022 1.103.223 1.34.19.228.306-.01.373.409.035.215.109.39.337.445.215.052.188-.05.25.14.034.112.044.169.128.263.2.22.62.188.92.252.294.062.198.406.767.406.35 0 .84.047 1.1-.17.21-.177.042-.24.463-.253.97-.03.781-.337.868-.564.119-.312.571.067.658-.774.037-.361.005-2.518-.032-2.793a.715.715 0 00-.465-.61c-.178-.072-.055-.04-.196-.161-.393-.341.082-.074-.59-.485a.745.745 0 00-.268-.091l-1.375-.09c-.052-.076-.064-.1-.131-.163-.141.104.03.188-.75.228-.643.034-.9-.032-1.112.353-.188.347-.596.13-.614.886zm2.137-1.061c.38-.07.86-.02 1.246.035.688.096.577.284.9.462.169.094.288.124.404.275l.042.056c.114.159.07.213.24.352.37.304.304.398.366.986.047.438.012.836-.03 1.272-.054.586-.714 1.259-1.184 1.548-.141.087-.888.275-1.027.282-.762.047-.606-.005-1.227-.124-.477-.094-.69-.064-.947-.403-.319-.42-.368-.064-.66-.72-.074-.168-.129-.309-.223-.455-.284-.45-.311-1.27-.15-1.743.054-.161.135-.324.212-.473.43-.846.008-.294.791-.925.27-.217.179-.267.641-.358.188-.037.418-.03.608-.065l-.002-.002zm-5.921 3.438c0 .138.067.061.27.26.336.328.047.44.536.516.463.072.433.074.94-.007.337-.055.196-.213.433-.619.111-.188.027-.205.025-.442 0-.08.005-.188-.003-.265-.017-.143-.024-.096-.079-.19-.067-.11-.074-.27-.109-.403-.056-.213-.118-.169-.34-.196-.144-.017-.397-.16-.948-.086-.413.054-.354.638-.72.838v.594h-.005z"/><path d="M58.778 87.411c0-1.28-.284-1.147-.542-1.479-.277-.358-.301-.145-.519-.36-.42-.416-.579-.377-1.222-.377-.472 0-.541.44-.75.552-.096.052-.12.03-.22.106a.522.522 0 00-.15.176c-.07.126-.1.351-.129.524-.072.443-.069 1.296.141 1.702.09.173.161.215.346.304.203.099.25.119.475.175.51.132.658.58 1.071.11.08-.092.052-.085.21-.117.537-.111.287.04.767-.21.124-.064.097-.017.203-.124.198-.195.314-.606.314-.987m-3.326.104c-.07-.326.084-1.103.217-1.261.129-.156.445-.369.626-.512.116-.091.126-.064.302-.084.472-.05.326-.067.61.079.327.168.646.101.893.601.213.433.42.559.381 1.14-.012.17-.4.76-.606.883-.168.102-.378.151-.576.196-.435.098-.972.022-1.276-.203a.142.142 0 00-.02-.015l-.02-.015c-.062-.047-.052-.035-.101-.089-.07-.074-.136-.129-.19-.198-.117-.146-.139-.242-.186-.396-.015-.049-.052-.12-.054-.126zm4.098 3.223c.074-.126.074-.658 0-.782-.089-.15-.235-.079-.398-.27-.131-.153-.082-.395-.324-.348-.141.027-.126.062-.183.16-.203.342-.413.194-.51.503a6.967 6.967 0 00-.049.608c.04.314.344.287.41.297.78.129.13.102.77-.062.138-.034.175-.01.28-.104"/></g></g><defs><clipPath id="clip0_774_3275"><path fill="#fff" d="M0 0h183v95H0z"/></clipPath></defs></svg>