<svg width="161" height="95" fill="none" xmlns="http://www.w3.org/2000/svg"><g clip-path="url(#clip0_774_3317)"><mask id="a" style="mask-type:luminance" maskUnits="userSpaceOnUse" x="-73" y="-116" width="309" height="308"><path d="M235.306-115.643H-72.159v307.466h307.465v-307.466z" fill="#fff"/></mask><g mask="url(#a)" fill-rule="evenodd" clip-rule="evenodd" fill="#E9E7DC"><path d="M15.822 60.653c6.447.362 5.864-2.928 5.857-8.431 0-2.17.2-4.834-.47-6.74-.86-2.458-2.419-2.379-5.383-2.238v17.413l-.004-.004zm-.01-26.86c5.354.026 5.159-1.392 5.144-6.475-.018-5.67.998-7.047-5.12-6.873l-.025 13.345v.003zM3.85 71.41a364.85 364.85 0 0017.112.029c11.993-.26 13.194-12.319 12.691-22.298-.101-2.006-.886-5.416-1.562-7.021-.925-2.198-2.589-3.457-4.718-4.26 3.836-2.65 5.365-3.481 5.52-9.852.283-11.768-1.438-17.044-13.64-17.025C14.18 10.99 8.995 10.87 3.94 11l-.087 60.412-.003-.003zm94.4-43.749c0-1.537.044-3.514-.59-4.722-.603-1.157-2.385-1.938-3.8-.842-2.013 1.562-1.3 6.992-1.3 10 0 4.147-.558 24.97.647 27.36.697 1.384 2.585 1.796 3.868.665 1.645-1.447 1.168-7.224 1.168-9.947 0-7.502-.01-15.008 0-22.514M91.037 10.91c-3.988 1.034-5.12 1.555-7.318 4.125-5.16 6.028-3.286 21.842-3.286 31.044 0 7.086-.73 14.712 2.719 20.023 5.474 8.428 24.806 9.494 26.889-7.047.777-6.157.217-15.948.217-22.525 0-6.577.925-15.34-2.354-20.424-2.835-4.393-9.625-7.069-16.863-5.196h-.004zm21.26 60.507l11.939.007.043-28.639 5.89 28.614 11.895.043V11.015l-11.646-.036-.112 28.104-5.499-27.974-12.427-.134-.083 60.442zM53.308 22.104l12.366-.007c-.311.972-1.859 3.944-2.52 5.134L55.29 43.172l5.062.01-7.477 15.461c-1.743 3.601-1.056 5.37-.944 12.77l26.007.03.018-11.072-13.273-.032 10.528-21.462-5.155-.04 8.493-18.657c.08-2.82.076-6.301-.058-9.114l-25.14-.084-.043 11.126v-.004zM36.984 71.42l11.718.018.032-60.441-11.681-.018-.07 60.441zm47.628 14.636v-8.225h1.092v4.078l4.086-4.078h1.475l-3.45 3.337 3.602 4.892H89.98l-2.928-4.15-1.345 1.3v2.85h-1.092l-.004-.004zm-8.261 0v-8.225h1.117l4.317 6.457v-6.457h1.045v8.225h-1.117L77.395 79.6v6.457H76.35zm-2.998 0v-8.225h1.092v8.225h-1.092zm-7.368-4.595h2.335c.5 0 .886-.05 1.165-.156.278-.1.491-.267.636-.495a1.33 1.33 0 00.217-.738c0-.386-.141-.708-.42-.961-.282-.25-.726-.376-1.334-.376h-2.6v2.726zm-1.089 4.595v-8.225h3.648c.734 0 1.291.076 1.67.224.38.148.688.408.916.78.227.373.34.79.34 1.237 0 .586-.189 1.078-.568 1.48-.376.397-.958.65-1.75.762.29.138.506.275.658.409.318.293.618.658.9 1.095l1.421 2.242h-1.36l-1.088-1.71a14.005 14.005 0 00-.784-1.136c-.206-.26-.39-.444-.553-.55a1.568 1.568 0 00-.496-.216 3.323 3.323 0 00-.603-.04h-1.262v3.652h-1.092l.003-.004zm-7.23-.965h1.753c.542 0 .965-.05 1.276-.152a1.83 1.83 0 00.738-.427c.256-.26.459-.607.6-1.044.145-.438.217-.966.217-1.588 0-.86-.141-1.526-.423-1.988-.282-.463-.626-.774-1.03-.93-.29-.112-.76-.17-1.407-.17h-1.725v6.299zm-1.093.965v-8.225h2.835c.64 0 1.128.04 1.464.12.47.108.872.306 1.208.588.434.37.76.836.972 1.407.217.571.322 1.226.322 1.956 0 .625-.072 1.179-.217 1.66-.144.484-.332.882-.56 1.2a2.991 2.991 0 01-.752.745 3.02 3.02 0 01-.98.412 5.583 5.583 0 01-1.323.14h-2.969v-.003zm-8.33 0v-3.485l-3.17-4.744h1.308l1.627 2.491c.304.46.586.922.839 1.385.25-.43.557-.915.91-1.45l1.595-2.426h1.27l-3.287 4.744v3.485h-1.092zm-7.405-3.228v-.966h3.482v3.048a6.16 6.16 0 01-1.656.962 4.949 4.949 0 01-1.75.322c-.81 0-1.54-.174-2.202-.517a3.441 3.441 0 01-1.493-1.5c-.336-.655-.506-1.386-.506-2.192 0-.806.166-1.547.502-2.242.337-.694.818-1.207 1.443-1.543.63-.337 1.352-.507 2.173-.507.593 0 1.132.094 1.613.29.48.195.856.462 1.128.806.274.343.48.795.622 1.349l-.984.267c-.123-.42-.278-.748-.46-.99-.184-.24-.444-.43-.784-.576a2.858 2.858 0 00-1.131-.216c-.496 0-.926.075-1.288.227a2.42 2.42 0 00-.878.6 2.85 2.85 0 00-.517.814 4.32 4.32 0 00-.315 1.66c0 .734.127 1.348.376 1.847.254.495.622.86 1.103 1.1.481.238.994.36 1.537.36.47 0 .929-.093 1.377-.274.449-.184.789-.376 1.02-.586v-1.543h-2.412zM29.803 81.46h2.336c.5 0 .886-.05 1.164-.156.279-.1.492-.267.637-.495.144-.224.217-.47.217-.738 0-.386-.141-.708-.423-.961-.282-.25-.727-.376-1.334-.376h-2.6v2.722l.003.004zm-1.091 4.595V77.83h3.648c.734 0 1.29.076 1.67.224.38.148.687.408.915.78.228.373.34.79.34 1.237 0 .586-.188 1.078-.568 1.48-.376.397-.958.65-1.75.762.29.138.506.275.658.409.318.293.618.658.9 1.095l1.421 2.242h-1.36L33.5 84.35a14.03 14.03 0 00-.785-1.136c-.206-.26-.39-.444-.553-.55a1.567 1.567 0 00-.495-.216 3.324 3.324 0 00-.604-.04H29.8v3.652h-1.092l.004-.004zm-7.662 0V77.83h5.94v.965h-4.848v2.527h4.538v.966h-4.538v2.802h5.044v.965H21.05zm-8.334 0V77.83h1.118l4.317 6.457V77.83h1.044v8.225h-1.117L13.761 79.6v6.457h-1.045zm-7.629 0V77.83h5.94v.965H6.18v2.527h4.538v.966H6.179v2.802h5.044v.965H5.087zM147.823 65.1h9.13v1.211h-8.06v4.491h-1.07V65.1zm3.75-6.826v3.11l2.53-.952a34.98 34.98 0 011.906-.654 13.094 13.094 0 01-1.757-.502l-2.679-1.002zm-3.75-2.629l9.13 3.504v1.327l-9.13 3.717v-1.378l2.766-1.056v-3.843l-2.766-.99v-1.284.003zm0-8.218h9.13v1.244l-7.167 4.79h7.167v1.161h-9.13v-1.24l7.166-4.79h-7.166v-1.165zm0-3.326h9.13v1.211h-9.13v-1.211zm3.583-5.85h1.07v3.861h-3.384a6.85 6.85 0 01-1.066-1.836 5.452 5.452 0 01-.358-1.942c0-.897.191-1.71.575-2.444.383-.73.94-1.287 1.663-1.656.727-.372 1.54-.56 2.433-.56.893 0 1.717.184 2.488.556.77.373 1.341.904 1.713 1.602.373.698.561 1.5.561 2.408 0 .658-.105 1.258-.322 1.79-.213.535-.513.95-.893 1.254-.383.304-.882.535-1.497.69l-.296-1.091c.462-.137.828-.307 1.095-.51.264-.202.477-.491.636-.871a3.18 3.18 0 00.239-1.255c0-.55-.083-1.026-.253-1.431a2.663 2.663 0 00-.665-.973 3.199 3.199 0 00-.904-.575 4.823 4.823 0 00-1.84-.35c-.818 0-1.497.14-2.051.419a2.69 2.69 0 00-1.222 1.222 3.803 3.803 0 00-.397 1.706c0 .521.101 1.034.303 1.53.203.499.42.875.651 1.131h1.71v-2.675h.011zm-3.583-7.61h9.13v1.21h-9.13v-1.21zm5.102-8.176v2.593c0 .553.058.983.173 1.29.112.311.297.546.55.705.249.163.524.243.817.243.43 0 .788-.156 1.067-.467.278-.31.415-.806.415-1.479v-2.885h-3.022zm-5.102-1.211h9.13V25.3c0 .813-.084 1.432-.246 1.855a2 2 0 01-.868 1.012c-.416.253-.875.38-1.374.38-.647 0-1.193-.21-1.638-.63-.445-.419-.723-1.062-.846-1.941a3.103 3.103 0 01-.455.73 6.052 6.052 0 01-1.215.998l-2.488 1.58v-1.508l1.898-1.207c.55-.35.969-.64 1.262-.868.293-.228.492-.434.611-.614.116-.178.196-.362.243-.55.028-.137.043-.358.043-.672v-1.4h-4.053v-1.211h-.004zm4.422-9.064c-1.099 0-1.963.296-2.596.886-.633.589-.947 1.33-.947 2.223 0 .893.318 1.656.954 2.245.637.586 1.544.879 2.716.879.741 0 1.388-.126 1.941-.376a2.87 2.87 0 001.287-1.103 2.998 2.998 0 00.456-1.627c0-.857-.293-1.59-.879-2.205-.585-.615-1.565-.926-2.936-.926l.004.004zm.022-1.248c1.511 0 2.697.409 3.554 1.223.857.813 1.283 1.865 1.283 3.152 0 .843-.202 1.602-.603 2.282a3.926 3.926 0 01-1.685 1.547c-.72.354-1.533.532-2.444.532-.912 0-1.754-.185-2.484-.56-.731-.377-1.284-.905-1.656-1.588a4.545 4.545 0 01-.564-2.22c0-.86.209-1.627.622-2.307a3.984 3.984 0 011.699-1.536 5.155 5.155 0 012.274-.525h.004z"/></g></g><defs><clipPath id="clip0_774_3317"><path fill="#fff" d="M0 0h161v95H0z"/></clipPath></defs></svg>