<svg width="96" height="85" viewBox="0 0 96 85" fill="none" xmlns="http://www.w3.org/2000/svg">
<g clip-path="url(#clip0_5_2)">
<mask id="mask0_5_2" style="mask-type:luminance" maskUnits="userSpaceOnUse" x="0" y="0" width="96" height="85">
<path d="M0 0H95.76V85H0V0Z" fill="white"/>
</mask>
<g mask="url(#mask0_5_2)">
<path fill-rule="evenodd" clip-rule="evenodd" d="M2.42499 77.41C2.42499 77.41 17.102 67.153 40.982 61.15C61.102 56.091 84.37 60.502 84.37 60.502C84.37 60.502 66.049 60.458 47.421 69.657C34.5 76.039 25.347 85 25.347 85C25.347 85 24.387 82.115 15.875 79.701C9.70499 77.949 2.42499 77.41 2.42499 77.41Z" fill="#E9E7DC"/>
<path d="M38.543 65.067C51.288 59.883 60.815 59.563 60.815 59.563C60.815 59.563 49.533 58.739 34.438 62.948C19.124 67.524 8.79603 73.6 4.65503 76.053C6.74503 76.193 10.148 76.316 13.005 76.816C15.17 77.194 17.315 76.611 19.422 75.33C23.775 72.69 28.7 69.074 38.542 65.07L38.543 65.067Z" fill="#E9E7DC"/>
<path d="M88.846 60.545C88.1271 60.5447 87.4376 60.2592 86.929 59.7511C86.4203 59.243 86.1341 58.5539 86.133 57.835C86.1346 57.1164 86.4211 56.4277 86.9297 55.9201C87.4383 55.4124 88.1274 55.1272 88.846 55.127C89.5517 55.1461 90.2221 55.44 90.7145 55.9459C91.2069 56.4518 91.4824 57.13 91.4824 57.836C91.4824 58.5419 91.2069 59.2201 90.7145 59.726C90.2221 60.232 89.5517 60.5258 88.846 60.545ZM88.846 55.461C88.2157 55.4607 87.6112 55.7107 87.1653 56.1561C86.7193 56.6015 86.4685 57.2057 86.468 57.836C86.4688 58.4659 86.7196 59.0697 87.1653 59.5148C87.6109 59.9599 88.2151 60.21 88.845 60.21C89.1568 60.21 89.4655 60.1485 89.7535 60.0292C90.0415 59.9099 90.3032 59.7351 90.5237 59.5146C90.7441 59.2942 90.919 59.0325 91.0383 58.7444C91.1576 58.4564 91.219 58.1477 91.219 57.836C91.219 57.5242 91.1576 57.2155 91.0383 56.9275C90.919 56.6394 90.7441 56.3777 90.5237 56.1573C90.3032 55.9368 90.0415 55.762 89.7535 55.6427C89.4655 55.5234 89.1568 55.462 88.845 55.462L88.846 55.461Z" fill="#E9E7DC"/>
<path fill-rule="evenodd" clip-rule="evenodd" d="M87.95 56.21V59.347H88.41V58.027H88.799L89.54 59.347H90.09L89.263 57.955C89.695 57.857 89.921 57.573 89.921 57.113C89.921 56.501 89.547 56.21 88.81 56.21H87.95ZM88.41 56.613H88.749C89.216 56.613 89.429 56.76 89.429 57.138C89.429 57.454 89.213 57.62 88.759 57.62H88.41V56.613Z" fill="#E9E7DC"/>
<path d="M76.582 43.953C75.482 43.953 74.37 43.849 73.272 43.64C71.722 43.345 68.981 42.349 67.132 39.554C63.948 34.74 62.722 21.095 79.741 12.969C86.734 9.63001 94.076 9.97901 94.076 9.97901L95.76 0.0110133C95.76 0.0110133 70.078 -1.06099 57.814 17.717C51.195 27.851 49.716 37.784 54.091 46.127C54.138 46.212 54.188 46.292 54.231 46.374L37.81 34.73L37.526 34.529C37.123 34.219 37.062 33.709 37.324 33.209C37.572 32.738 38.652 31.769 39.444 31.094C44.354 26.91 49.142 21.924 49.833 16.251C51.034 6.36801 44.044 1.85701 35.803 2.14501C33.13 2.23901 30.917 2.46901 27.6 3.41101C22.582 4.84301 16.456 7.63101 12.185 10.905C10.635 12.103 10.045 13.977 9.815 14.642L7.879 22.057C7.879 22.057 12.534 18.902 18.571 15.779C23.651 13.149 27.338 11.448 31.061 11.448C32.162 11.448 33.122 11.635 33.911 12.006C34.946 12.491 36.155 13.459 36.483 15.246C37.004 18.121 35.108 21.629 30.881 24.661C28.727 26.208 26.054 27.928 24.039 28.906C23.485 29.176 23.053 29.385 22.719 29.546L25.029 17.434L23.963 17.804C23.816 17.854 20.773 19.014 17.938 20.578C14.862 22.273 11.214 24.744 10.286 28.82C10.214 29.133 10.138 29.417 10.052 29.73L0 73.686C1.068 72.981 6.677 69.383 15.951 65.397L20.397 44.043C20.4118 44.0056 20.4239 43.9672 20.433 43.928C21.103 41.489 22.693 40.824 25.093 41.906L46.374 55.976C49.177 55.562 54.087 54.926 58.296 54.853C64.009 54.753 65.847 54.969 70.254 55.429C72.826 55.699 74.967 55.907 76.92 55.854C82.557 55.695 87.651 53.717 92.087 50.666L92.314 50.511L92.36 50.245C92.36 50.245 94.59 37.248 94.602 37.19L94.892 35.503L93.552 36.579C87.266 41.611 81.874 43.953 76.582 43.957V43.953Z" fill="#E9E7DC"/>
<path d="M93.026 8.47196C93.026 8.47196 84.975 8.62696 78.384 12.152C72.225 15.447 63.538 21.642 64.088 33.042C64.401 39.539 68.75 42.047 70.92 42.849C69.3813 42.1135 68.0718 40.9731 67.132 39.55C63.948 34.737 62.722 21.092 79.741 12.965C86.734 9.62696 94.076 9.97496 94.076 9.97496L95.76 0.0119629L94.346 1.22796L93.026 8.47196ZM36.55 32.949C36.643 33.549 36.978 34.025 37.38 34.395C37.111 34.082 37.097 33.643 37.32 33.211C37.568 32.741 38.647 31.773 39.438 31.096C44.349 26.912 49.138 21.926 49.828 16.253C50.396 11.576 49.13 8.10496 46.763 5.77296L45.457 5.14096C45.457 5.14096 46.475 5.94296 47.295 7.28796C49.364 10.681 51.685 18.94 39.093 29.233C37.766 30.319 36.313 31.456 36.546 32.956L36.55 32.949ZM37.809 34.733L37.683 34.643C37.744 34.686 37.805 34.733 37.867 34.773L37.809 34.733ZM20.398 44.043C20.412 44.0054 20.4237 43.967 20.433 43.928C20.808 42.572 21.463 41.766 22.387 41.5C22.5933 41.1238 22.9357 40.8408 23.344 40.709C23.344 40.709 20.326 40.392 19.153 42.957C18.153 45.141 14.246 63.347 14.246 63.347C14.246 63.347 9.39299 65.581 6.36799 67.307C3.45399 68.967 2.44299 69.787 2.44299 69.787L0.00299072 73.66V73.682C1.06899 72.976 6.67299 69.379 15.951 65.393L20.398 44.039V44.043ZM22.718 29.546L25.028 17.433L23.689 18.764L21.121 30.186C21.121 30.186 22.265 29.754 22.718 29.546Z" fill="#E9E7DC"/>
<path d="M31.057 11.447C32.157 11.447 33.118 11.634 33.906 12.005C34.942 12.49 36.151 13.458 36.478 15.245C36.553 15.67 36.571 16.105 36.546 16.552C36.787 15.375 36.672 13.897 35.532 12.342C32.219 7.82804 21.506 12.839 21.506 12.839C17.706 14.372 9.65903 19.163 9.65903 19.163L7.87903 22.041V22.052C7.87903 22.052 12.534 18.897 18.566 15.775C23.646 13.145 27.333 11.443 31.056 11.443L31.057 11.447ZM93.026 38.237L90.957 49.256C90.957 49.256 85.18 54.231 76.665 54.353C68.729 54.469 62.379 51.537 62.379 51.537L64.679 53.202C64.679 53.202 59.944 52.857 55.436 53.174C51.209 53.468 47.58 54.015 47.58 54.015L46.385 55.972C48.839 55.612 52.904 55.08 56.695 54.904C56.7637 54.9035 56.8324 54.9012 56.901 54.897C57.371 54.875 57.843 54.861 58.303 54.854C64.016 54.753 65.855 54.969 70.261 55.429C72.834 55.699 74.974 55.908 76.927 55.854C82.565 55.695 87.658 53.717 92.094 50.666L92.321 50.512L92.368 50.245L94.608 37.19L94.897 35.51L93.033 38.244L93.026 38.237Z" fill="#E9E7DC"/>
</g>
</g>
<defs>
<clipPath id="clip0_5_2">
<rect width="96" height="85" fill="white"/>
</clipPath>
</defs>
</svg>
