<svg width="176" height="65" fill="none" xmlns="http://www.w3.org/2000/svg"><g clip-path="url(#clip0_1_99)" fill="#E9E7DC"><path d="M5.124 24.783h.17c1.249-3.253 3.87-5.318 7.286-5.318 1.476 0 2.959.532 4.214 1.358l-2.333 4.843c-.91-.83-1.938-1.121-3.132-1.121-5.522 0-6.208 5.318-6.208 9.806v13.588H0V20.29h5.124v4.492zM21.61 35.004c.054 4.729 3.13 9.16 8.029 9.16 3.93 0 6.034-2.069 7.972-5.379l4.327 2.544c-2.506 4.782-7.175 7.56-12.356 7.56-8.143 0-13.096-6.382-13.096-14.535 0-8.152 4.385-14.886 12.982-14.886 8.598 0 12.47 6.496 12.47 14.712v.827H21.61v-.003zm15.201-4.017c-.626-4.14-3.243-6.914-7.346-6.914s-6.945 2.955-7.574 6.914h14.92zM67.3 43.628h-.114c-2.048 3.133-5.295 5.261-9.053 5.261-8.2 0-12.754-7.031-12.754-14.95 0-7.918 4.84-14.471 12.527-14.471 3.986 0 7.175 2.128 9.28 5.435h.114V0h5.127v47.942H67.3v-4.314zm.284-9.511c0-5.375-3.129-9.927-8.654-9.927-5.526 0-8.428 4.783-8.428 9.927 0 5.144 3.023 10.043 8.428 10.043 5.405 0 8.654-4.608 8.654-10.043zm23.605-9.334h.17c1.256-3.254 3.876-5.318 7.296-5.318 1.48 0 2.966.532 4.214 1.358l-2.336 4.843c-.91-.83-1.935-1.121-3.136-1.121-5.522 0-6.205 5.318-6.205 9.806v13.588h-5.13V20.29h5.13v4.492h-.003zm38.146 23.159h-5.124v-4.314h-.11c-2.052 3.133-5.235 5.261-9.053 5.261-8.146 0-12.758-7.031-12.758-14.95 0-7.918 4.843-14.471 12.584-14.471 3.929 0 7.118 2.128 9.223 5.435h.111v-4.608h5.124v27.65l.003-.003zm-4.839-13.825c0-5.375-3.13-9.927-8.652-9.927-5.522 0-8.423 4.783-8.423 9.927 0 5.144 3.012 10.043 8.423 10.043 5.412 0 8.652-4.608 8.652-10.043zm17.363-24.254c0 2.008-1.597 3.604-3.528 3.604s-3.531-1.593-3.531-3.604c0-2.012 1.593-3.722 3.531-3.722 1.938 0 3.528 1.654 3.528 3.722zm-.971 38.08h-5.127V20.29h5.127v27.651zm10.579-23.927h.11c1.6-2.955 4.786-4.551 8.033-4.551 7.52 0 9.454 5.257 9.454 11.994v16.483h-5.124V32.109c0-4.73-.629-7.916-5.863-7.916-6.607 0-6.607 6.021-6.607 11.048v12.704h-5.124V20.291h5.124v3.722l-.003.003zm18.059-4.666c0-1.703 1.302-3.051 2.949-3.051 1.646 0 2.951 1.348 2.951 3.052 0 1.703-1.301 3.055-2.951 3.055-1.65 0-2.949-1.352-2.949-3.055zm.475 0c0 1.437 1.125 2.558 2.47 2.558 1.346 0 2.477-1.121 2.477-2.557s-1.125-2.557-2.477-2.557c-1.352 0-2.47 1.111-2.47 2.557zm3.822 1.741h-.545l-.847-1.583h-.612v1.583h-.479v-3.437h1.389c.602 0 1.141.188 1.141.91 0 .676-.442.927-.883.944l.836 1.583zm-2.008-2.935v.854h.509c.448 0 1.061.076 1.061-.389 0-.435-.351-.465-.75-.465h-.823.003zM27.273 54.88h-4.21v2.617h4.086v1.543h-4.087v3.645h4.21v1.542h-5.796V53.33h5.797v1.55zm4.866 9.35V52.595l7.657 8.317v-7.574h1.587v11.556l-7.658-8.29v7.628H32.14zm20.338-9.35h-4.21v2.617h4.09v1.543h-4.09v3.645h4.21v1.542h-5.793V53.33h5.793v1.55zm8.41 4.705l3.253 4.646h-1.938l-2.998-4.461h-.285v4.46h-1.586V53.335h1.858c1.388 0 2.389.27 3.005.813.68.599 1.02 1.395 1.02 2.383 0 .77-.214 1.432-.639 1.991-.428.552-.987.91-1.686 1.064h-.004zm-1.971-1.248h.502c1.5 0 2.252-.599 2.252-1.787 0-1.115-.73-1.67-2.192-1.67h-.565v3.457h.003zm14.749.221h4.338v.355c0 .82-.09 1.543-.278 2.175a4.672 4.672 0 0 1-.917 1.637c-.974 1.138-2.216 1.706-3.718 1.706-1.503 0-2.731-.548-3.776-1.65-1.047-1.104-1.57-2.432-1.57-3.982 0-1.55.533-2.918 1.597-4.02 1.068-1.107 2.363-1.66 3.893-1.66.82 0 1.586.175 2.299.523.68.344 1.349.91 2.008 1.686L76.41 56.45c-.86-1.19-1.911-1.783-3.15-1.783-1.108 0-2.041.398-2.794 1.191-.753.78-1.128 1.76-1.128 2.935s.418 2.212 1.258 2.999c.783.73 1.633 1.094 2.55 1.094.78 0 1.48-.27 2.099-.816.622-.55.97-1.208 1.044-1.972h-2.62v-1.542l-.004.003zm10.89.961l-3.427-6.185h1.821l2.4 4.354 2.41-4.354h1.823l-3.44 6.184v4.71h-1.587v-4.71zm16.095 4.711V53.335h2.206c1.054 0 1.887.107 2.5.324a4.637 4.637 0 0 1 1.79 1.081c1.085 1.024 1.627 2.373 1.627 4.043s-.566 3.029-1.694 4.063c-.565.519-1.161.877-1.78 1.081-.583.2-1.403.305-2.47.305h-2.179zm1.587-1.546h.712c.713 0 1.306-.076 1.774-.234a3.52 3.52 0 0 0 1.279-.783c.779-.74 1.168-1.7 1.168-2.885 0-1.185-.385-2.165-1.158-2.908-.696-.663-1.717-.994-3.066-.994h-.713v7.804h.004zm14.869-3.099l3.253 4.646h-1.941l-2.999-4.461h-.284v4.46h-1.583V53.335h1.857c1.386 0 2.39.27 3.006.813.679.599 1.017 1.395 1.017 2.383 0 .77-.211 1.432-.639 1.991-.425.552-.988.91-1.687 1.064zm-1.971-1.248h.502c1.499 0 2.252-.599 2.252-1.787 0-1.115-.729-1.67-2.189-1.67h-.565v3.457zm11.158-5.003V64.23h-1.583V53.334h1.583zm5.294 10.896V52.595l7.658 8.317v-7.574h1.583v11.556l-7.658-8.29v7.628h-1.583zm16.132-6.549l4.086-4.347h2.115l-4.749 4.933 4.776 5.964h-2.122l-3.782-4.846-.328.338v4.508h-1.583V53.334h1.583v4.347h.004z"/></g><defs><clipPath id="clip0_1_99"><path fill="#fff" d="M0 0h175.423v64.89H0z"/></clipPath></defs></svg>