<svg width="210" height="79" fill="none" xmlns="http://www.w3.org/2000/svg"><g clip-path="url(#clip0_1_31)" fill="#E9E7DC"><path d="M200.427 69.406c-4.883 0-8.856-3.973-8.856-8.856s3.973-8.856 8.856-8.856 8.856 3.973 8.856 8.856-3.973 8.856-8.856 8.856zm0-17.419c-4.722 0-8.563 3.841-8.563 8.563 0 4.721 3.841 8.562 8.563 8.562 4.721 0 8.562-3.84 8.562-8.562 0-4.722-3.841-8.563-8.562-8.563z"/><path d="M196.589 59.666a1.917 1.917 0 1 0 0-3.834 1.917 1.917 0 0 0 0 3.834zm1.932-36.962a4.174 4.174 0 0 1-4.169-4.17c0-2.3 1.87-4.17 4.169-4.17 2.299 0 4.17 1.87 4.17 4.17s-1.871 4.17-4.17 4.17zm0-8.046a3.88 3.88 0 0 0-3.876 3.876 3.88 3.88 0 0 0 3.876 3.876 3.88 3.88 0 0 0 3.876-3.876 3.88 3.88 0 0 0-3.876-3.876z"/><path d="M197.414 18.534a.887.887 0 1 0 0-1.774.887.887 0 0 0 0 1.774zm-4.102 18.754a2.825 2.825 0 0 1-2.822-2.821 2.825 2.825 0 0 1 2.822-2.822 2.824 2.824 0 0 1 2.822 2.822 2.824 2.824 0 0 1-2.822 2.821zm0-5.35a2.53 2.53 0 0 0-2.528 2.529 2.53 2.53 0 0 0 2.528 2.528 2.53 2.53 0 0 0 2.528-2.528 2.53 2.53 0 0 0-2.528-2.529z"/><path d="M192.725 34.783a.59.59 0 1 0 0-1.18.59.59 0 0 0 0 1.18zM47.824 78.15c-2.3 0-4.17-1.87-4.17-4.17 0-2.299 1.87-4.17 4.17-4.17a4.175 4.175 0 0 1 4.17 4.17c0 2.3-1.871 4.17-4.17 4.17zm0-8.043a3.88 3.88 0 0 0-3.876 3.876 3.88 3.88 0 0 0 3.876 3.876 3.88 3.88 0 0 0 3.876-3.876 3.88 3.88 0 0 0-3.876-3.876z"/><path d="M46.717 73.983a.887.887 0 1 0 0-1.773.887.887 0 0 0 0 1.773zm7.211-4.513a2.825 2.825 0 0 1-2.822-2.822 2.825 2.825 0 0 1 2.822-2.821 2.825 2.825 0 0 1 2.822 2.822 2.825 2.825 0 0 1-2.822 2.821zm0-5.35a2.53 2.53 0 0 0-2.528 2.528 2.53 2.53 0 0 0 2.528 2.529 2.53 2.53 0 0 0 2.528-2.529 2.53 2.53 0 0 0-2.528-2.528z"/><path d="M53.338 66.966a.59.59 0 1 0 0-1.18.59.59 0 0 0 0 1.18zM8.853 17.709C3.973 17.709 0 13.736 0 8.856S3.973 0 8.853 0s8.853 3.973 8.853 8.856-3.973 8.853-8.853 8.853zm0-17.415c-4.719 0-8.56 3.84-8.56 8.562 0 4.722 3.841 8.56 8.56 8.56s8.56-3.841 8.56-8.56S13.574.294 8.852.294z"/><path d="M12.69 13.575a1.917 1.917 0 1 0 0-3.835 1.917 1.917 0 0 0 0 3.835zm4.023 18.043a4.175 4.175 0 0 1-4.17-4.17 4.174 4.174 0 0 1 4.17-4.169c2.3 0 4.17 1.87 4.17 4.17 0 2.299-1.87 4.17-4.17 4.17zm0-8.045a3.88 3.88 0 0 0-3.875 3.876 3.88 3.88 0 0 0 3.876 3.876 3.88 3.88 0 0 0 3.875-3.876 3.88 3.88 0 0 0-3.875-3.876z"/><path d="M17.82 29.222a.887.887 0 1 0 0-1.773.887.887 0 0 0 0 1.773zm-7.211 8.383a2.825 2.825 0 0 1-2.822-2.821 2.825 2.825 0 0 1 2.822-2.822 2.825 2.825 0 0 1 2.822 2.822 2.825 2.825 0 0 1-2.822 2.821zm0-5.35a2.53 2.53 0 0 0-2.528 2.529 2.53 2.53 0 0 0 2.528 2.528 2.53 2.53 0 0 0 2.528-2.528 2.53 2.53 0 0 0-2.528-2.529z"/><path d="M11.2 35.647a.59.59 0 1 0 0-1.18.59.59 0 0 0 0 1.18zm62.228 23.12v4.417c0 .62.153 1.08.456 1.38.302.3.725.449 1.265.449.54 0 .951-.15 1.257-.45.302-.299.455-.76.455-1.38v-4.416h.91v4.405c0 .581-.117 1.069-.35 1.465a2.206 2.206 0 0 1-.945.887c-.396.194-.843.29-1.336.29-.493 0-.94-.096-1.336-.29a2.172 2.172 0 0 1-.94-.887c-.229-.396-.346-.887-.346-1.465v-4.405h.91zm9.379 0v5.157c0 .575-.176 1.033-.532 1.377-.355.343-.822.516-1.4.516-.579 0-1.057-.176-1.413-.525-.352-.35-.531-.828-.531-1.436h.91c.006.34.094.617.264.831.17.214.426.32.767.32.34 0 .593-.103.76-.305.168-.203.25-.461.25-.776V58.77h.922l.003-.003zm2.704.74v2.332h2.543v.752h-2.543v2.401h2.843v.752h-3.756v-6.988h3.756v.751H85.51zm-.317-1.591a.497.497 0 0 1-.155-.37c0-.147.052-.273.155-.376a.515.515 0 0 1 .376-.156c.147 0 .261.053.364.156.103.103.156.23.156.376 0 .147-.053.27-.156.37a.536.536 0 0 1-.74 0zm1.627 0a.503.503 0 0 1-.15-.37.521.521 0 0 1 .896-.376c.103.103.155.23.155.376a.521.521 0 0 1-.531.52.503.503 0 0 1-.37-.15zm11.073 7.828h-.91l-3.665-5.555v5.555h-.91v-6.988h.91l3.665 5.546v-5.546h.91v6.988zm5.676-1.55h-3.042l-.561 1.55h-.96l2.522-6.938h1.051l2.514 6.938h-.961l-.56-1.55h-.003zm-.262-.743l-1.262-3.524-1.263 3.524h2.525zm7.179-4.684v.74h-1.902v6.237h-.911v-6.237h-1.911v-.74h4.724zm6.008 0l-2.272 4.346v2.634h-.911v-2.634l-2.281-4.346h1.01l1.721 3.536 1.72-3.536h1.013zm4.634 6.977l-1.662-2.854h-1.101v2.854h-.911v-6.977h2.252c.529 0 .972.091 1.336.27.365.18.638.423.817.732.179.305.27.657.27 1.05 0 .482-.138.905-.417 1.272-.279.367-.693.611-1.245.731l1.753 2.925h-1.092v-.003zm-2.763-3.582h1.341c.494 0 .864-.124 1.113-.367.247-.244.37-.57.37-.975s-.123-.734-.364-.96c-.244-.226-.616-.34-1.116-.34h-1.341v2.642h-.003zm9.299 2.032h-3.042l-.561 1.55h-.96l2.522-6.938h1.052l2.513 6.938h-.96l-.561-1.55h-.003zm-.258-.743l-1.263-3.524-1.263 3.524h2.526zm3.793 1.553h2.443v.74h-3.353v-6.977h.91v6.237zM87.282 70.83v6.927h-.91V72.59l-2.302 5.166h-.64l-2.314-5.177v5.177h-.91V70.83h.98l2.563 5.726 2.564-5.726h.972-.003zm2.452.69v2.331h2.543v.752h-2.543v2.402h2.842v.752h-3.755v-6.989h3.755v.752h-2.842zm7.81 5.497h2.443v.74h-3.353V70.78h.91v6.237zm4.325-6.237v6.977h-.91V70.78h.91zm8.627.05v6.927h-.91V72.59l-2.302 5.166h-.64l-2.314-5.177v5.177h-.91V70.83h.981l2.563 5.726 2.563-5.726h.972-.003zm2.934 6.542a3.307 3.307 0 0 1-1.266-1.272 3.636 3.636 0 0 1-.467-1.838c0-.68.156-1.292.467-1.838a3.347 3.347 0 0 1 1.266-1.271 3.53 3.53 0 0 1 1.77-.455 3.58 3.58 0 0 1 1.783.455c.534.302.954.725 1.262 1.265.306.54.461 1.154.461 1.841 0 .688-.152 1.301-.461 1.841-.308.54-.728.964-1.262 1.266a3.557 3.557 0 0 1-1.783.455 3.498 3.498 0 0 1-1.77-.455v.006zm3.089-.675a2.41 2.41 0 0 0 .922-.972c.223-.42.334-.908.334-1.463s-.111-1.048-.334-1.468a2.406 2.406 0 0 0-.916-.966 2.576 2.576 0 0 0-1.322-.34c-.493 0-.934.114-1.321.34a2.4 2.4 0 0 0-.916.966c-.223.417-.335.907-.335 1.468 0 .561.112 1.043.335 1.463.223.42.531.743.922.972.39.226.828.34 1.315.34.488 0 .925-.114 1.316-.34zm8.876 1.06h-.91L120.82 72.2v5.556h-.91v-6.989h.91l3.665 5.547v-5.547h.91v6.989zM42.424 38.058c4.149 6.727 11.484 12.33 22.005 16.801-9.922-1.054-19.227-6.477-27.916-16.267a17.706 17.706 0 0 0-.51-.584H31.43v3.89c0 2.593 1.037 4.41 3.113 5.447h-12.45c2.076-1.036 3.112-2.983 3.112-5.834V15.836c0-2.854-1.036-4.798-3.112-5.835h17.119c3.872 0 7.176 1.366 9.91 4.096 2.73 2.731 4.096 6.034 4.096 9.91 0 3.876-1.363 7.174-4.085 9.896-1.994 1.994-4.296 3.265-6.906 3.817l.194.34.003-.002zm-3.21-1.604c2.156 0 3.99-1.215 5.509-3.647 1.515-2.43 2.273-5.364 2.273-8.803 0-3.438-.758-6.371-2.273-8.803-1.515-2.431-3.35-3.647-5.509-3.647h-7.78v24.9h7.78z"/><path d="M77.196 48.904c-5.594 0-10.363-1.973-14.31-5.922-3.946-3.947-5.919-8.718-5.919-14.309 0-5.59 1.974-10.362 5.92-14.308 3.946-3.947 8.718-5.92 14.309-5.92 5.59 0 10.362 1.973 14.308 5.92 3.947 3.946 5.92 8.717 5.92 14.308 0 5.59-1.973 10.362-5.92 14.309-3.946 3.946-8.718 5.922-14.308 5.922zm0-1.556c3.873 0 7.176-1.823 9.91-5.47 2.73-3.647 4.096-8.049 4.096-13.205 0-5.156-1.366-9.555-4.096-13.204-2.731-3.647-6.034-5.47-9.91-5.47-3.876 0-7.177 1.823-9.91 5.47-2.731 3.647-4.097 8.048-4.097 13.204 0 5.156 1.366 9.555 4.096 13.205 2.731 3.647 6.035 5.47 9.91 5.47z"/><path d="M105.525 29.401l-5.714-8.923-2.869-4.475-1.436-2.214c-.957-1.492-2.804-2.754-5.543-3.794h14.006c-1.377.746-2.067 1.524-2.067 2.335 0 .308.105.625.317.948l1.119 1.727 2.237 3.43 4.475 6.905 5.326-6.906 2.652-3.43 1.312-1.726c.212-.276.318-.552.318-.828 0-.843-1.078-1.662-3.233-2.455h10.893c-2.868 1.037-5.244 2.772-7.123 5.203l-2.795 3.647-5.641 7.294v17.192c0 1.639 1.036 2.975 3.112 4.011h-12.45c2.076-1.036 3.113-2.924 3.113-5.664v-12.28l-.009.003zm22.856 11.429l-.511 1.068c-.455.957-.681 1.81-.681 2.555 0 1.28.664 2.246 1.994 2.892h-9.338c2.561-1.036 4.587-3.177 6.079-6.419l2.261-4.862 4.475-9.725 8.973-19.453 8.973 19.453 4.499 9.725 2.237 4.862c1.492 3.242 3.518 5.383 6.078 6.42h-12.45c.908-.6 1.363-1.46 1.363-2.579 0-.81-.244-1.768-.728-2.869l-1.75-3.89-9.775-21.788-8.924 18.749c1.8-.309 3.462-.461 4.986-.461 4.002 0 7.082 1.077 9.241 3.232a18.726 18.726 0 0 0-5.13-.728c-3.988 0-7.952 1.304-11.892 3.914l.023-.096h-.003zm35.307-30.832h9.337v35.794h9.338c2.076 0 3.112-1.556 3.112-4.669l3.113 6.225h-24.9c2.076-1.036 3.112-2.983 3.112-5.834V15.836c0-2.854-1.036-4.798-3.112-5.835v-.003z"/></g><defs><clipPath id="clip0_1_31"><path fill="#fff" d="M0 0h209.28v78.15H0z"/></clipPath></defs></svg>